<?xml version="1.0" encoding="UTF-8" standalone="no"?>
<svg
   xmlns:sketch="http://www.bohemiancoding.com/sketch/ns"
   xmlns:dc="http://purl.org/dc/elements/1.1/"
   xmlns:cc="http://creativecommons.org/ns#"
   xmlns:rdf="http://www.w3.org/1999/02/22-rdf-syntax-ns#"
   xmlns:svg="http://www.w3.org/2000/svg"
   xmlns="http://www.w3.org/2000/svg"
   xmlns:sodipodi="http://sodipodi.sourceforge.net/DTD/sodipodi-0.dtd"
   xmlns:inkscape="http://www.inkscape.org/namespaces/inkscape"
   width="648px"
   height="104px"
   viewBox="0 0 648 104"
   version="1.1"
   id="svg2"
   inkscape:version="0.91 r13725"
   sodipodi:docname="UD.2.Vertical.svg">
  <metadata
     id="metadata28">
    <rdf:RDF>
      <cc:Work
         rdf:about="">
        <dc:format>image/svg+xml</dc:format>
        <dc:type
           rdf:resource="http://purl.org/dc/dcmitype/StillImage" />
      </cc:Work>
    </rdf:RDF>
  </metadata>
  <sodipodi:namedview
     pagecolor="#ffffff"
     bordercolor="#666666"
     borderopacity="1"
     objecttolerance="10"
     gridtolerance="10"
     guidetolerance="10"
     inkscape:pageopacity="0"
     inkscape:pageshadow="2"
     inkscape:window-width="1920"
     inkscape:window-height="1017"
     id="namedview26"
     showgrid="false"
     inkscape:zoom="1.2570787"
     inkscape:cx="215.32492"
     inkscape:cy="63.673129"
     inkscape:window-x="-8"
     inkscape:window-y="-8"
     inkscape:window-maximized="1"
     inkscape:current-layer="svg2" />
  <!-- Generator: Sketch 3.0.1 (7597) - http://www.bohemiancoding.com/sketch -->
  <title
     id="title4">Artboard 21</title>
  <description>Created with Sketch.</description>
  <defs
     id="defs6" />
  <g
     style="font-size:45px;font-family:'Gotham Black';fill:#223052;fill-rule:evenodd;stroke:none;stroke-width:1"
     id="UNIFIED-DEMOCRACY">
    <path
       d="m 137.37338,42.860352 q 0,3.55957 -0.79101,6.218261 -0.76905,2.636719 -2.54883,4.394532 -1.6919,1.669921 -3.95508,2.438964 -2.26318,0.769043 -5.27344,0.769043 -3.07617,0 -5.36132,-0.812988 -2.28516,-0.812988 -3.84522,-2.395019 -1.77978,-1.801758 -2.5708,-4.350586 -0.76904,-2.548829 -0.76904,-6.262207 l 0,-19.577637 4.35058,0 0,19.797363 q 0,2.658692 0.35156,4.196777 0.37354,1.538086 1.23047,2.790528 0.9668,1.428222 2.61475,2.15332 1.66992,0.725098 3.99902,0.725098 2.35108,0 3.99903,-0.703125 1.64795,-0.725098 2.63672,-2.175293 0.85693,-1.252442 1.20849,-2.856446 0.37354,-1.625976 0.37354,-4.020996 l 0,-19.907226 4.35058,0 0,19.577637 z"
       style=""
       id="path4182" />
    <path
       d="m 170.66196,56 -5.3833,0 -15.5127,-29.267578 0,29.267578 -4.06494,0 0,-32.717285 6.7456,0 14.1504,26.71875 0,-26.71875 4.06494,0 0,32.717285 z"
       style=""
       id="path4184" />
    <path
       d="m 190.89877,56 -12.91992,0 0,-3.339844 4.28467,0 0,-26.037597 -4.28467,0 0,-3.339844 12.91992,0 0,3.339844 -4.28466,0 0,26.037597 4.28466,0 0,3.339844 z"
       style=""
       id="path4186" />
    <path
       d="m 219.2435,27.149902 -16.54541,0 0,9.228516 14.21631,0 0,3.867187 -14.21631,0 0,15.754395 -4.35059,0 0,-32.717285 20.896,0 0,3.867187 z"
       style=""
       id="path4188" />
    <path
       d="m 235.72299,56 -12.91992,0 0,-3.339844 4.28467,0 0,-26.037597 -4.28467,0 0,-3.339844 12.91992,0 0,3.339844 -4.28467,0 0,26.037597 4.28467,0 0,3.339844 z"
       style=""
       id="path4190" />
    <path
       d="m 264.7269,56 -21.55518,0 0,-32.717285 21.55518,0 0,3.867187 -17.20459,0 0,8.964844 17.20459,0 0,3.867188 -17.20459,0 0,12.150878 17.20459,0 0,3.867188 z"
       style=""
       id="path4192" />
    <path
       d="m 299.28989,39.674316 q 0,4.46045 -1.95557,8.085938 -1.93359,3.625488 -5.16357,5.625 -2.24122,1.384277 -5.00977,1.999512 Q 284.4144,56 279.91,56 l -8.26172,0 0,-32.717285 8.17383,0 q 4.79004,0 7.60254,0.703125 2.83447,0.681152 4.79004,1.889648 3.33984,2.087403 5.20752,5.559082 1.86768,3.47168 1.86768,8.239746 z m -4.54834,-0.06592 q 0,-3.845214 -1.34034,-6.481933 -1.34033,-2.636719 -3.99902,-4.152832 -1.93359,-1.098633 -4.10889,-1.516113 -2.17529,-0.439454 -5.20752,-0.439454 l -4.08691,0 0,25.246582 4.08691,0 q 3.14209,0 5.4712,-0.461425 2.35107,-0.461426 4.30664,-1.713868 2.43896,-1.560058 3.64746,-4.108886 1.23047,-2.548828 1.23047,-6.372071 z"
       style=""
       id="path4194" />
    <path
       d="m 345.31363,39.674316 q 0,4.46045 -1.95557,8.085938 -1.93359,3.625488 -5.16357,5.625 -2.24121,1.384277 -5.00977,1.999512 Q 330.43814,56 325.93375,56 l -8.26172,0 0,-32.717285 8.17383,0 q 4.79003,0 7.60253,0.703125 2.83448,0.681152 4.79004,1.889648 3.33985,2.087403 5.20752,5.559082 1.86768,3.47168 1.86768,8.239746 z m -4.54834,-0.06592 q 0,-3.845214 -1.34033,-6.481933 -1.34033,-2.636719 -3.99903,-4.152832 -1.93359,-1.098633 -4.10888,-1.516113 -2.1753,-0.439454 -5.20752,-0.439454 l -4.08692,0 0,25.246582 4.08692,0 q 3.14209,0 5.47119,-0.461425 2.35107,-0.461426 4.30664,-1.713868 2.43896,-1.560058 3.64746,-4.108886 1.23047,-2.548828 1.23047,-6.372071 z"
       style="font-weight:normal;font-family:'Gotham Medium'"
       id="path4196" />
    <path
       d="m 373.944,56 -21.55518,0 0,-32.717285 21.55518,0 0,3.867187 -17.20459,0 0,8.964844 17.20459,0 0,3.867188 -17.20459,0 0,12.150878 17.20459,0 0,3.867188 z"
       style="font-weight:normal;font-family:'Gotham Medium'"
       id="path4198" />
    <path
       d="m 410.00113,56 -4.35059,0 0,-28.190918 -9.09668,19.182129 -2.59277,0 -9.03076,-19.182129 0,28.190918 -4.06494,0 0,-32.717285 5.93261,0 8.72315,18.215332 8.4375,-18.215332 6.04248,0 0,32.717285 z"
       style="font-weight:normal;font-family:'Gotham Medium'"
       id="path4200" />
    <path
       d="m 443.22379,27.040039 q 1.99951,2.197266 3.05419,5.383301 1.07666,3.186035 1.07666,7.229004 0,4.042968 -1.09863,7.250976 -1.07666,3.186035 -3.03222,5.317383 -2.02149,2.219238 -4.79004,3.339844 -2.74659,1.120605 -6.28418,1.120605 -3.44971,0 -6.28418,-1.142578 -2.8125,-1.142578 -4.79004,-3.317871 -1.97754,-2.175293 -3.0542,-5.339355 -1.05469,-3.164063 -1.05469,-7.229004 0,-3.999024 1.05469,-7.163086 1.05469,-3.186035 3.07617,-5.449219 1.93359,-2.15332 4.79004,-3.295898 2.87842,-1.142579 6.26221,-1.142579 3.51562,0 6.30615,1.164551 2.8125,1.142578 4.76807,3.273926 z m -0.39551,12.612305 q 0,-6.372071 -2.85645,-9.821778 -2.85644,-3.471679 -7.80029,-3.471679 -4.98779,0 -7.84424,3.471679 -2.83447,3.449707 -2.83447,9.821778 0,6.437988 2.90039,9.865722 2.90039,3.405762 7.77832,3.405762 4.87793,0 7.75635,-3.405762 2.90039,-3.427734 2.90039,-9.865722 z"
       style="font-weight:normal;font-family:'Gotham Medium'"
       id="path4202" />
    <path
       d="m 479.52261,53.626953 q -1.20849,0.527344 -2.19726,0.98877 -0.9668,0.461425 -2.54883,0.966797 -1.34033,0.41748 -2.92236,0.703125 -1.56006,0.307617 -3.44971,0.307617 -3.55957,0 -6.48193,-0.98877 -2.90039,-1.010742 -5.05372,-3.14209 -2.10937,-2.087402 -3.29589,-5.29541 -1.18653,-3.22998 -1.18653,-7.492676 0,-4.042968 1.14258,-7.229004 1.14258,-3.186035 3.2959,-5.3833 2.0874,-2.131348 5.03174,-3.251953 2.96631,-1.120606 6.56982,-1.120606 2.63672,0 5.25147,0.637207 2.63672,0.637207 5.84472,2.241211 l 0,5.163574 -0.32959,0 q -2.70263,-2.263183 -5.36132,-3.295898 -2.6587,-1.032715 -5.69092,-1.032715 -2.48291,0 -4.48242,0.812988 -1.97754,0.791016 -3.5376,2.48291 -1.51612,1.64795 -2.37305,4.174805 -0.83496,2.504883 -0.83496,5.800781 0,3.449707 0.92285,5.932618 0.94483,2.48291 2.41699,4.042968 1.53809,1.625977 3.58155,2.416993 2.06543,0.769042 4.35058,0.769042 3.14209,0 5.88867,-1.07666 2.74659,-1.07666 5.14161,-3.22998 l 0.30761,0 0,5.097656 z"
       style="font-weight:normal;font-family:'Gotham Medium'"
       id="path4204" />
    <path
       d="m 512.78922,56 -5.64698,0 -10.94238,-13.007813 -6.13037,0 0,13.007813 -4.35059,0 0,-32.717285 9.1626,0 q 2.96631,0 4.94385,0.395508 1.97754,0.373535 3.55957,1.362304 1.77978,1.120606 2.76855,2.834473 1.01075,1.691895 1.01075,4.306641 0,3.537597 -1.77979,5.932617 -1.77979,2.373047 -4.8999,3.581543 L 512.78922,56 Z M 502.61588,32.489258 q 0,-1.40625 -0.50538,-2.48291 -0.48339,-1.098633 -1.62597,-1.845703 -0.94483,-0.637208 -2.24121,-0.878907 -1.29639,-0.263672 -3.0542,-0.263672 l -5.11963,0 0,12.348633 4.39453,0 q 2.06543,0 3.60352,-0.351562 1.53808,-0.373535 2.61474,-1.362305 0.98877,-0.922852 1.4502,-2.109375 0.4834,-1.208496 0.4834,-3.054199 z"
       style="font-weight:normal;font-family:'Gotham Medium'"
       id="path4206" />
    <path
       d="m 542.80386,56 -4.63623,0 -3.208,-9.118652 -14.1504,0 -3.208,9.118652 -4.41651,0 11.90918,-32.717285 5.80078,0 L 542.80386,56 Z m -9.18457,-12.854004 -5.73486,-16.062012 -5.75684,16.062012 11.4917,0 z"
       style="font-weight:normal;font-family:'Gotham Medium'"
       id="path4208" />
    <path
       d="m 573.03824,53.626953 q -1.2085,0.527344 -2.19727,0.98877 -0.96679,0.461425 -2.54883,0.966797 -1.34033,0.41748 -2.92236,0.703125 -1.56006,0.307617 -3.44971,0.307617 -3.55957,0 -6.48193,-0.98877 -2.90039,-1.010742 -5.05371,-3.14209 -2.10938,-2.087402 -3.2959,-5.29541 -1.18652,-3.22998 -1.18652,-7.492676 0,-4.042968 1.14258,-7.229004 1.14257,-3.186035 3.29589,-5.3833 2.08741,-2.131348 5.03174,-3.251953 2.96631,-1.120606 6.56983,-1.120606 2.63672,0 5.25146,0.637207 2.63672,0.637207 5.84473,2.241211 l 0,5.163574 -0.32959,0 q -2.70264,-2.263183 -5.36133,-3.295898 -2.65869,-1.032715 -5.69092,-1.032715 -2.48291,0 -4.48242,0.812988 -1.97754,0.791016 -3.5376,2.48291 -1.51611,1.64795 -2.37304,4.174805 -0.83496,2.504883 -0.83496,5.800781 0,3.449707 0.92285,5.932618 0.94482,2.48291 2.41699,4.042968 1.53808,1.625977 3.58154,2.416993 2.06543,0.769042 4.35059,0.769042 3.14209,0 5.88867,-1.07666 2.74658,-1.07666 5.1416,-3.22998 l 0.30762,0 0,5.097656 z"
       style="font-weight:normal;font-family:'Gotham Medium'"
       id="path4210" />
    <path
       d="m 602.39371,23.282715 -11.51367,18.36914 0,14.348145 -4.35059,0 0,-13.886719 -11.55762,-18.830566 4.81201,0 8.94288,14.633789 9.03076,-14.633789 4.63623,0 z"
       style="font-weight:normal;font-family:'Gotham Medium'"
       id="path4212" />
  </g>
  <g
     style="font-weight:normal;font-size:14px;font-family:'Gotham Light';letter-spacing:3.60000038;fill:#4a4a4a;fill-rule:evenodd;stroke:none;stroke-width:1"
     id="POLITICAL-ACTION-COM">
    <path
       d="m 120.39738,71.897461 q 0,0.676758 -0.23926,1.257812 -0.23242,0.574219 -0.65625,0.998047 -0.52637,0.526367 -1.24414,0.792969 -0.71777,0.259766 -1.81152,0.259766 l -1.35352,0 0,3.793945 -1.35352,0 0,-10.178711 2.76172,0 q 0.91602,0 1.55176,0.157227 0.63574,0.15039 1.12793,0.478515 0.58105,0.389649 0.89551,0.970703 0.32129,0.581055 0.32129,1.469727 z m -1.40821,0.03418 q 0,-0.526368 -0.18457,-0.916016 -0.18457,-0.389648 -0.56054,-0.635742 -0.32813,-0.211914 -0.75196,-0.300781 -0.41699,-0.0957 -1.05957,-0.0957 l -1.33984,0 0,4.067383 1.1416,0 q 0.82031,0 1.33301,-0.143554 0.51269,-0.150391 0.83398,-0.47168 0.32129,-0.328125 0.45118,-0.69043 0.13671,-0.362305 0.13671,-0.813476 z"
       style=""
       id="path4215" />
    <path
       d="m 133.37628,69.990234 q 0.62207,0.683594 0.9502,1.674805 0.33496,0.991211 0.33496,2.249023 0,1.257813 -0.3418,2.25586 -0.33496,0.991211 -0.94336,1.654297 -0.6289,0.690429 -1.49023,1.039062 -0.85449,0.348633 -1.95508,0.348633 -1.07324,0 -1.95508,-0.355469 -0.875,-0.355468 -1.49023,-1.032226 -0.61524,-0.676758 -0.9502,-1.661133 -0.32812,-0.984375 -0.32812,-2.249024 0,-1.24414 0.32812,-2.228515 0.32813,-0.991211 0.95703,-1.695313 0.60157,-0.669922 1.49024,-1.02539 0.89551,-0.355469 1.94824,-0.355469 1.09375,0 1.96192,0.362305 0.875,0.355468 1.48339,1.018554 z m -0.12304,3.923828 q 0,-1.982421 -0.88868,-3.055664 -0.88867,-1.080078 -2.42675,-1.080078 -1.55176,0 -2.44043,1.080078 -0.88184,1.073243 -0.88184,3.055664 0,2.00293 0.90235,3.069336 0.90234,1.059571 2.41992,1.059571 1.51758,0 2.41308,-1.059571 0.90235,-1.066406 0.90235,-3.069336 z"
       style=""
       id="path4217" />
    <path
       d="m 146.84738,79 -6.43946,0 0,-10.178711 1.35352,0 0,8.975586 5.08594,0 0,1.203125 z"
       style=""
       id="path4219" />
    <path
       d="m 155.38976,79 -4.01953,0 0,-1.039063 1.33301,0 0,-8.100585 -1.33301,0 0,-1.039063 4.01953,0 0,1.039063 -1.333,0 0,8.100585 1.333,0 0,1.039063 z"
       style=""
       id="path4221" />
    <path
       d="m 168.56691,70.024414 -3.63672,0 0,8.975586 -1.35351,0 0,-8.975586 -3.63672,0 0,-1.203125 8.62695,0 0,1.203125 z"
       style=""
       id="path4223" />
    <path
       d="m 177.13663,79 -4.01953,0 0,-1.039063 1.33301,0 0,-8.100585 -1.33301,0 0,-1.039063 4.01953,0 0,1.039063 -1.333,0 0,8.100585 1.333,0 0,1.039063 z"
       style=""
       id="path4225" />
    <path
       d="m 190.91535,78.261719 q -0.37597,0.164062 -0.68359,0.307617 -0.30078,0.143555 -0.79297,0.300781 -0.41699,0.129883 -0.90918,0.21875 -0.48535,0.0957 -1.07324,0.0957 -1.10742,0 -2.0166,-0.307617 -0.90235,-0.314453 -1.57227,-0.977539 -0.65625,-0.649414 -1.02539,-1.647461 -0.36914,-1.004883 -0.36914,-2.331055 0,-1.257812 0.35547,-2.249023 0.35547,-0.991211 1.02539,-1.674805 0.64941,-0.663086 1.56543,-1.011718 0.92285,-0.348633 2.04394,-0.348633 0.82032,0 1.63379,0.198242 0.82031,0.198242 1.81836,0.697266 l 0,1.606445 -0.10254,0 q -0.84082,-0.704102 -1.66797,-1.025391 -0.82714,-0.321289 -1.7705,-0.321289 -0.77246,0 -1.39454,0.25293 -0.61523,0.246094 -1.10058,0.772461 -0.47168,0.512695 -0.73828,1.298828 -0.25977,0.779297 -0.25977,1.804687 0,1.073243 0.28711,1.845704 0.29395,0.77246 0.75195,1.257812 0.47852,0.505859 1.11426,0.751953 0.64258,0.239258 1.35352,0.239258 0.97754,0 1.83203,-0.334961 0.85449,-0.334961 1.59961,-1.004883 l 0.0957,0 0,1.585938 z"
       style=""
       id="path4227" />
    <path
       d="m 204.46848,79 -1.44239,0 -0.99804,-2.836914 -4.40235,0 L 196.62766,79 l -1.37403,0 3.70508,-10.178711 1.80469,0 L 204.46848,79 Z m -2.85743,-3.999023 -1.78418,-4.997071 -1.79101,4.997071 3.57519,0 z"
       style=""
       id="path4229" />
    <path
       d="m 216.05285,79 -6.43945,0 0,-10.178711 1.35351,0 0,8.975586 5.08594,0 0,1.203125 z"
       style=""
       id="path4231" />
    <path
       d="m 237.55363,79 -1.44239,0 -0.99804,-2.836914 -4.40235,0 L 229.71281,79 l -1.37403,0 3.70508,-10.178711 1.80469,0 L 237.55363,79 Z m -2.85742,-3.999023 -1.78418,-4.997071 -1.79102,4.997071 3.5752,0 z"
       style=""
       id="path4233" />
    <path
       d="m 250.55988,78.261719 q -0.37597,0.164062 -0.68359,0.307617 -0.30078,0.143555 -0.79297,0.300781 -0.41699,0.129883 -0.90918,0.21875 -0.48535,0.0957 -1.07324,0.0957 -1.10742,0 -2.0166,-0.307617 -0.90235,-0.314453 -1.57227,-0.977539 -0.65625,-0.649414 -1.02539,-1.647461 -0.36914,-1.004883 -0.36914,-2.331055 0,-1.257812 0.35547,-2.249023 0.35547,-0.991211 1.02539,-1.674805 0.64941,-0.663086 1.56543,-1.011718 0.92285,-0.348633 2.04394,-0.348633 0.82032,0 1.63379,0.198242 0.82032,0.198242 1.81836,0.697266 l 0,1.606445 -0.10254,0 q -0.84082,-0.704102 -1.66796,-1.025391 -0.82715,-0.321289 -1.77051,-0.321289 -0.77246,0 -1.39453,0.25293 -0.61524,0.246094 -1.10059,0.772461 -0.47168,0.512695 -0.73828,1.298828 -0.25977,0.779297 -0.25977,1.804687 0,1.073243 0.28711,1.845704 0.29395,0.77246 0.75196,1.257812 0.47851,0.505859 1.11425,0.751953 0.64258,0.239258 1.35352,0.239258 0.97754,0 1.83203,-0.334961 0.85449,-0.334961 1.59961,-1.004883 l 0.0957,0 0,1.585938 z"
       style=""
       id="path4235" />
    <path
       d="m 263.34739,70.024414 -3.63672,0 0,8.975586 -1.35352,0 0,-8.975586 -3.63671,0 0,-1.203125 8.62695,0 0,1.203125 z"
       style=""
       id="path4237" />
    <path
       d="m 271.91711,79 -4.01953,0 0,-1.039063 1.333,0 0,-8.100585 -1.333,0 0,-1.039063 4.01953,0 0,1.039063 -1.33301,0 0,8.100585 1.33301,0 0,1.039063 z"
       style=""
       id="path4239" />
    <path
       d="m 285.42239,69.990234 q 0.62207,0.683594 0.95019,1.674805 0.33496,0.991211 0.33496,2.249023 0,1.257813 -0.34179,2.25586 -0.33497,0.991211 -0.94336,1.654297 -0.62891,0.690429 -1.49024,1.039062 -0.85449,0.348633 -1.95508,0.348633 -1.07324,0 -1.95507,-0.355469 -0.875,-0.355468 -1.49024,-1.032226 -0.61523,-0.676758 -0.95019,-1.661133 -0.32813,-0.984375 -0.32813,-2.249024 0,-1.24414 0.32813,-2.228515 0.32812,-0.991211 0.95703,-1.695313 0.60156,-0.669922 1.49023,-1.02539 0.89551,-0.355469 1.94824,-0.355469 1.09375,0 1.96192,0.362305 0.875,0.355468 1.4834,1.018554 z m -0.12305,3.923828 q 0,-1.982421 -0.88867,-3.055664 -0.88867,-1.080078 -2.42676,-1.080078 -1.55176,0 -2.44043,1.080078 -0.88184,1.073243 -0.88184,3.055664 0,2.00293 0.90235,3.069336 0.90234,1.059571 2.41992,1.059571 1.51758,0 2.41309,-1.059571 0.90234,-1.066406 0.90234,-3.069336 z"
       style=""
       id="path4241" />
    <path
       d="m 300.21964,79 -1.6748,0 -4.82617,-9.105469 0,9.105469 -1.26465,0 0,-10.178711 2.09863,0 4.40234,8.3125 0,-8.3125 1.26465,0 0,10.178711 z"
       style=""
       id="path4243" />
    <path
       d="m 322.90989,78.261719 q -0.37598,0.164062 -0.68359,0.307617 -0.30079,0.143555 -0.79297,0.300781 -0.417,0.129883 -0.90918,0.21875 -0.48535,0.0957 -1.07325,0.0957 -1.10742,0 -2.0166,-0.307617 -0.90234,-0.314453 -1.57226,-0.977539 -0.65625,-0.649414 -1.02539,-1.647461 -0.36914,-1.004883 -0.36914,-2.331055 0,-1.257812 0.35547,-2.249023 0.35546,-0.991211 1.02539,-1.674805 0.64941,-0.663086 1.56543,-1.011718 0.92285,-0.348633 2.04394,-0.348633 0.82031,0 1.63379,0.198242 0.82031,0.198242 1.81836,0.697266 l 0,1.606445 -0.10254,0 q -0.84082,-0.704102 -1.66797,-1.025391 -0.82715,-0.321289 -1.77051,-0.321289 -0.77246,0 -1.39453,0.25293 -0.61523,0.246094 -1.10058,0.772461 -0.47168,0.512695 -0.73828,1.298828 -0.25977,0.779297 -0.25977,1.804687 0,1.073243 0.28711,1.845704 0.29394,0.77246 0.75195,1.257812 0.47852,0.505859 1.11426,0.751953 0.64258,0.239258 1.35352,0.239258 0.97753,0 1.83203,-0.334961 0.85449,-0.334961 1.59961,-1.004883 l 0.0957,0 0,1.585938 z"
       style=""
       id="path4245" />
    <path
       d="m 336.02551,69.990234 q 0.62207,0.683594 0.95019,1.674805 0.33496,0.991211 0.33496,2.249023 0,1.257813 -0.3418,2.25586 -0.33496,0.991211 -0.94335,1.654297 -0.62891,0.690429 -1.49024,1.039062 -0.85449,0.348633 -1.95508,0.348633 -1.07324,0 -1.95508,-0.355469 -0.875,-0.355468 -1.49023,-1.032226 -0.61523,-0.676758 -0.9502,-1.661133 -0.32812,-0.984375 -0.32812,-2.249024 0,-1.24414 0.32812,-2.228515 0.32813,-0.991211 0.95704,-1.695313 0.60156,-0.669922 1.49023,-1.02539 0.89551,-0.355469 1.94824,-0.355469 1.09375,0 1.96192,0.362305 0.875,0.355468 1.4834,1.018554 z m -0.12305,3.923828 q 0,-1.982421 -0.88867,-3.055664 -0.88868,-1.080078 -2.42676,-1.080078 -1.55176,0 -2.44043,1.080078 -0.88184,1.073243 -0.88184,3.055664 0,2.00293 0.90235,3.069336 0.90234,1.059571 2.41992,1.059571 1.51758,0 2.41308,-1.059571 0.90235,-1.066406 0.90235,-3.069336 z"
       style=""
       id="path4247" />
    <path
       d="m 352.1216,79 -1.35351,0 0,-8.770508 -2.83008,5.967774 -0.80664,0 -2.80957,-5.967774 0,8.770508 -1.26465,0 0,-10.178711 1.8457,0 2.71387,5.666992 2.625,-5.666992 1.87988,0 0,10.178711 z"
       style=""
       id="path4249" />
    <path
       d="m 367.5341,79 -1.35352,0 0,-8.770508 -2.83008,5.967774 -0.80664,0 -2.80957,-5.967774 0,8.770508 -1.26465,0 0,-10.178711 1.84571,0 2.71386,5.666992 2.625,-5.666992 1.87989,0 0,10.178711 z"
       style=""
       id="path4251" />
    <path
       d="m 377.47102,79 -4.01954,0 0,-1.039063 1.33301,0 0,-8.100585 -1.33301,0 0,-1.039063 4.01954,0 0,1.039063 -1.33301,0 0,8.100585 1.33301,0 0,1.039063 z"
       style=""
       id="path4253" />
    <path
       d="m 390.64817,70.024414 -3.63672,0 0,8.975586 -1.35351,0 0,-8.975586 -3.63672,0 0,-1.203125 8.62695,0 0,1.203125 z"
       style=""
       id="path4255" />
    <path
       d="m 402.42396,70.024414 -3.63672,0 0,8.975586 -1.35352,0 0,-8.975586 -3.63672,0 0,-1.203125 8.62696,0 0,1.203125 z"
       style=""
       id="path4257" />
    <path
       d="m 414.11088,79 -6.70606,0 0,-10.178711 6.70606,0 0,1.203125 -5.35254,0 0,2.789063 5.35254,0 0,1.203125 -5.35254,0 0,3.780273 5.35254,0 0,1.203125 z"
       style=""
       id="path4259" />
    <path
       d="m 426.57023,79 -6.70606,0 0,-10.178711 6.70606,0 0,1.203125 -5.35254,0 0,2.789063 5.35254,0 0,1.203125 -5.35254,0 0,3.780273 5.35254,0 0,1.203125 z"
       style=""
       id="path4261" />
  </g>
  <g
     style="fill:none;fill-rule:evenodd;stroke:none;stroke-width:1"
     id="Group"
     sketch:type="MSLayerGroup"
     transform="translate(27,20)">
    <path
       d="M 16.094044,54.330176 C 6.4127413,49.082591 0,39.922501 0,29.5 0,13.2076 15.670034,0 35,0 54.329966,0 70,13.2076 70,29.5 70,45.7924 54.329966,59 35,59 c -2.467861,0 -4.876066,-0.21528 -7.199623,-0.624774 -5.965097,1.529033 -17.603873,5.66227 -16.756511,4.382468 1.040413,-1.571374 4.838491,-4.624816 5.050184,-8.427514 z"
       id="Oval-3"
       sketch:type="MSShapeGroup"
       inkscape:connector-curvature="0"
       style="fill:#223052" />
    <path
       d="M 51.064948,62.75139 C 49.907167,62.914792 48.715947,63 47.5,63 36.178163,63 27,55.612698 27,46.5 27,37.387302 36.178163,30 47.5,30 58.821837,30 68,37.387302 68,46.5 68,52.709842 63.737908,58.118456 57.439765,60.93415 57.648844,63.383696 60,64.939821 60,65.84356 c 0,0.903422 -5.688278,-2.369453 -8.935052,-3.09217 z"
       id="Oval-4"
       sketch:type="MSShapeGroup"
       inkscape:connector-curvature="0"
       style="fill:#ff4c62" />
    <polygon
       id="Star-5"
       sketch:type="MSShapeGroup"
       points="35.177483,44.679712 36.5,42 37.822517,44.679712 40.779754,45.109423 38.639877,47.195288 39.145034,50.140577 36.5,48.75 33.854966,50.140577 34.360123,47.195288 32.220246,45.109423 "
       style="fill:#ffffff" />
    <polygon
       id="Star-6"
       sketch:type="MSShapeGroup"
       points="45.177483,44.679712 46.5,42 47.822517,44.679712 50.779754,45.109423 48.639877,47.195288 49.145034,50.140577 46.5,48.75 43.854966,50.140577 44.360123,47.195288 42.220246,45.109423 "
       style="fill:#ffffff" />
    <polygon
       id="Star-7"
       sketch:type="MSShapeGroup"
       points="56.177483,44.679712 57.5,42 58.822517,44.679712 61.779754,45.109423 59.639877,47.195288 60.145034,50.140577 57.5,48.75 54.854966,50.140577 55.360123,47.195288 53.220246,45.109423 "
       style="fill:#ffffff" />
  </g>
</svg>
