<?xml version="1.0" encoding="UTF-8" standalone="no"?>
<svg
   xmlns:sketch="http://www.bohemiancoding.com/sketch/ns"
   xmlns:dc="http://purl.org/dc/elements/1.1/"
   xmlns:cc="http://creativecommons.org/ns#"
   xmlns:rdf="http://www.w3.org/1999/02/22-rdf-syntax-ns#"
   xmlns:svg="http://www.w3.org/2000/svg"
   xmlns="http://www.w3.org/2000/svg"
   xmlns:sodipodi="http://sodipodi.sourceforge.net/DTD/sodipodi-0.dtd"
   xmlns:inkscape="http://www.inkscape.org/namespaces/inkscape"
   id="svg2"
   version="1.1"
   viewBox="0 0 648 104"
   height="104px"
   width="648px"
   inkscape:version="0.91 r13725"
   sodipodi:docname="UD-vertical.svg">
  <sodipodi:namedview
     pagecolor="#ffffff"
     bordercolor="#666666"
     borderopacity="1"
     objecttolerance="10"
     gridtolerance="10"
     guidetolerance="10"
     inkscape:pageopacity="0"
     inkscape:pageshadow="2"
     inkscape:window-width="1920"
     inkscape:window-height="1017"
     id="namedview31"
     showgrid="false"
     inkscape:zoom="7.1111111"
     inkscape:cx="187.20191"
     inkscape:cy="27.647473"
     inkscape:window-x="-8"
     inkscape:window-y="-8"
     inkscape:window-maximized="1"
     inkscape:current-layer="svg2" />
  <metadata
     id="metadata28">
    <rdf:RDF>
      <cc:Work
         rdf:about="">
        <dc:format>image/svg+xml</dc:format>
        <dc:type
           rdf:resource="http://purl.org/dc/dcmitype/StillImage" />
        <dc:title>Artboard 21</dc:title>
      </cc:Work>
    </rdf:RDF>
  </metadata>
  <!-- Generator: Sketch 3.0.1 (7597) - http://www.bohemiancoding.com/sketch -->
  <title
     id="title4">Artboard 21</title>
  <description>Created with Sketch.</description>
  <defs
     id="defs6" />
  <g
     id="UNIFIED-DEMOCRACY"
     style="font-size:45px;font-family:'Gotham Black';fill:#223052;fill-rule:evenodd;stroke:none;stroke-width:1">
    <path
       id="path4157"
       style="font-style:normal;font-variant:normal;font-weight:normal;font-stretch:normal;font-family:Montserrat;-inkscape-font-specification:Montserrat"
       d="m 119.7775,48.8 q 2.16,2.52 5.85,2.52 3.69,0 5.85,-2.52 2.16,-2.52 2.16,-6.84 l 0,-17.415 5.31,0 0,17.64 q 0,6.795 -3.735,10.485 -3.735,3.645 -9.585,3.645 -5.85,0 -9.585,-3.645 -3.735,-3.69 -3.735,-10.485 l 0,-17.64 5.31,0 0,17.415 q 0,4.32 2.16,6.84 z" />
    <path
       id="path4159"
       style="font-style:normal;font-variant:normal;font-weight:normal;font-stretch:normal;font-family:Montserrat;-inkscape-font-specification:Montserrat"
       d="m 170.83352,24.545 5.31,0 0,31.455 -5.76,0 -17.82,-22.95 0,22.95 -5.31,0 0,-31.455 5.31,0 18.27,23.49 0,-23.49 z" />
    <path
       id="path4161"
       style="font-style:normal;font-variant:normal;font-weight:normal;font-stretch:normal;font-family:Montserrat;-inkscape-font-specification:Montserrat"
       d="m 184.87071,24.545 5.31,0 0,31.455 -5.31,0 0,-31.455 z" />
    <path
       id="path4163"
       style="font-style:normal;font-variant:normal;font-weight:normal;font-stretch:normal;font-family:Montserrat;-inkscape-font-specification:Montserrat"
       d="m 204.24321,29.495 0,8.64 13.95,0 0,4.905 -13.95,0 0,12.96 -5.31,0 0,-31.455 20.97,0 -0.045,4.95 -15.615,0 z" />
    <path
       id="path4165"
       style="font-style:normal;font-variant:normal;font-weight:normal;font-stretch:normal;font-family:Montserrat;-inkscape-font-specification:Montserrat"
       d="m 226.09141,24.545 5.31,0 0,31.455 -5.31,0 0,-31.455 z" />
    <path
       id="path4167"
       style="font-style:normal;font-variant:normal;font-weight:normal;font-stretch:normal;font-family:Montserrat;-inkscape-font-specification:Montserrat"
       d="m 262.24891,24.545 0,4.995 -16.785,0 0,8.325 15.075,0 0,4.725 -15.075,0 0,8.415 17.325,0 0,4.995 -22.635,0 0,-31.455 22.095,0 z" />
    <path
       id="path4169"
       style="font-style:normal;font-variant:normal;font-weight:normal;font-stretch:normal;font-family:Montserrat;-inkscape-font-specification:Montserrat"
       d="m 280.39727,24.545 q 8.46,0 13.005,4.14 4.545,4.095 4.545,11.43 0,7.335 -4.41,11.61 -4.41,4.275 -13.5,4.275 l -10.44,0 0,-31.455 10.8,0 z m 12.195,15.705 q 0,-10.8 -12.375,-10.8 l -5.31,0 0,21.555 5.895,0 q 5.715,0 8.73,-2.7 3.06,-2.745 3.06,-8.055 z" />
    <path
       id="path4171"
       style="font-style:normal;font-variant:normal;font-weight:normal;font-stretch:normal;font-family:Montserrat;-inkscape-font-specification:Montserrat"
       d="m 328.4425,24.545 q 8.46,0 13.005,4.14 4.545,4.095 4.545,11.43 0,7.335 -4.41,11.61 -4.41,4.275 -13.5,4.275 l -10.44,0 0,-31.455 10.8,0 z m 12.195,15.705 q 0,-10.8 -12.375,-10.8 l -5.31,0 0,21.555 5.895,0 q 5.715,0 8.73,-2.7 3.06,-2.745 3.06,-8.055 z" />
    <path
       id="path4173"
       style="font-style:normal;font-variant:normal;font-weight:normal;font-stretch:normal;font-family:Montserrat;-inkscape-font-specification:Montserrat"
       d="m 374.89375,24.545 0,4.995 -16.785,0 0,8.325 15.075,0 0,4.725 -15.075,0 0,8.415 17.325,0 0,4.995 -22.635,0 0,-31.455 22.095,0 z" />
    <path
       id="path4175"
       style="font-style:normal;font-variant:normal;font-weight:normal;font-stretch:normal;font-family:Montserrat;-inkscape-font-specification:Montserrat"
       d="m 387.55211,56 -5.31,0 0,-31.455 8.28,0 9.495,19.755 9.495,-19.755 8.235,0 0,31.455 -5.31,0 0,-24.57 -10.98,21.825 -2.97,0 -10.935,-21.825 0,24.57 z" />
    <path
       id="path4177"
       style="font-style:normal;font-variant:normal;font-weight:normal;font-stretch:normal;font-family:Montserrat;-inkscape-font-specification:Montserrat"
       d="m 448.86109,31.97 q -3.195,-3.33 -7.875,-3.33 -4.68,0 -7.92,3.33 -3.195,3.33 -3.195,8.1 0,4.725 3.195,8.055 3.24,3.33 7.92,3.33 4.68,0 7.875,-3.33 3.24,-3.33 3.24,-8.055 0,-4.77 -3.24,-8.1 z m 3.915,19.71 q -4.77,4.635 -11.79,4.635 -7.02,0 -11.79,-4.635 -4.77,-4.68 -4.77,-11.61 0,-6.975 4.77,-11.61 4.77,-4.68 11.79,-4.68 7.02,0 11.79,4.68 4.77,4.635 4.77,11.61 0,6.93 -4.77,11.61 z" />
    <path
       id="path4179"
       style="font-style:normal;font-variant:normal;font-weight:normal;font-stretch:normal;font-family:Montserrat;-inkscape-font-specification:Montserrat"
       d="m 478.59906,51.185 q 2.745,0 4.725,-0.9 1.98,-0.945 4.14,-2.97 l 3.42,3.51 q -4.995,5.535 -12.15,5.535 -7.11,0 -11.835,-4.59 -4.68,-4.59 -4.68,-11.61 0,-7.02 4.77,-11.7 4.815,-4.68 12.105,-4.68 7.335,0 12.24,5.4 l -3.375,3.69 q -2.25,-2.16 -4.275,-3.015 -1.98,-0.855 -4.68,-0.855 -4.77,0 -8.01,3.105 -3.24,3.06 -3.24,7.875 0,4.77 3.195,8.01 3.24,3.195 7.65,3.195 z" />
    <path
       id="path4181"
       style="font-style:normal;font-variant:normal;font-weight:normal;font-stretch:normal;font-family:Montserrat;-inkscape-font-specification:Montserrat"
       d="m 522.48882,34.76 q 0,7.785 -6.795,9.81 l 8.235,11.43 -6.75,0 -7.515,-10.575 -6.975,0 0,10.575 -5.31,0 0,-31.455 11.7,0 q 7.2,0 10.305,2.43 3.105,2.43 3.105,7.785 z m -13.185,5.85 q 4.5,0 6.12,-1.395 1.62,-1.395 1.62,-4.455 0,-3.105 -1.665,-4.23 -1.665,-1.17 -5.94,-1.17 l -6.75,0 0,11.25 6.615,0 z" />
    <path
       id="path4183"
       style="font-style:normal;font-variant:normal;font-weight:normal;font-stretch:normal;font-family:Montserrat;-inkscape-font-specification:Montserrat"
       d="m 534.61703,48.845 -3.15,7.155 -5.67,0 13.86,-31.455 5.67,0 13.86,31.455 -5.67,0 -3.15,-7.155 -15.75,0 z m 13.59,-4.905 -5.715,-12.96 -5.715,12.96 11.43,0 z" />
    <path
       id="path4185"
       style="font-style:normal;font-variant:normal;font-weight:normal;font-stretch:normal;font-family:Montserrat;-inkscape-font-specification:Montserrat"
       d="m 577.91547,51.185 q 2.745,0 4.725,-0.9 1.98,-0.945 4.14,-2.97 l 3.42,3.51 q -4.995,5.535 -12.15,5.535 -7.11,0 -11.835,-4.59 -4.68,-4.59 -4.68,-11.61 0,-7.02 4.77,-11.7 4.815,-4.68 12.105,-4.68 7.335,0 12.24,5.4 l -3.375,3.69 q -2.25,-2.16 -4.275,-3.015 -1.98,-0.855 -4.68,-0.855 -4.77,0 -8.01,3.105 -3.24,3.06 -3.24,7.875 0,4.77 3.195,8.01 3.24,3.195 7.65,3.195 z" />
    <path
       id="path4187"
       style="font-style:normal;font-variant:normal;font-weight:normal;font-stretch:normal;font-family:Montserrat;-inkscape-font-specification:Montserrat"
       d="m 609.07023,56 -5.4,0 0,-12.42 -11.7,-19.035 5.805,0 8.595,14.31 8.595,-14.31 5.805,0 -11.7,19.035 0,12.42 z" />
  </g>
  <g
     style="font-weight:normal;font-size:14px;font-family:'Gotham Light';letter-spacing:3.60000038;fill:#4a4a4a;fill-rule:evenodd;stroke:none;stroke-width:1"
     id="POLITICAL-ACTION-COM">
    <path
       d="m 117.08999,69.214 q 2.226,0 3.248,0.854 1.022,0.854 1.022,2.632 0,1.778 -1.05,2.604 -1.036,0.826 -3.192,0.826 l -1.736,0 0,2.87 -1.652,0 0,-9.786 3.36,0 z m 0.21,5.418 q 1.372,0 1.862,-0.518 0.504,-0.532 0.504,-1.54 0,-1.022 -0.63,-1.442 -0.63,-0.42 -1.974,-0.42 l -1.68,0 0,3.92 1.918,0 z"
       style="font-style:normal;font-variant:normal;font-weight:normal;font-stretch:normal;font-family:Montserrat;-inkscape-font-specification:Montserrat"
       id="path4160" />
    <path
       d="m 133.8723,71.524 q -0.994,-1.036 -2.45,-1.036 -1.456,0 -2.464,1.036 -0.994,1.036 -0.994,2.52 0,1.47 0.994,2.506 1.008,1.036 2.464,1.036 1.456,0 2.45,-1.036 1.008,-1.036 1.008,-2.506 0,-1.484 -1.008,-2.52 z m 1.218,6.132 q -1.484,1.442 -3.668,1.442 -2.184,0 -3.668,-1.442 -1.484,-1.456 -1.484,-3.612 0,-2.17 1.484,-3.612 1.484,-1.456 3.668,-1.456 2.184,0 3.668,1.456 1.484,1.442 1.484,3.612 0,2.156 -1.484,3.612 z"
       style="font-style:normal;font-variant:normal;font-weight:normal;font-stretch:normal;font-family:Montserrat;-inkscape-font-specification:Montserrat"
       id="path4162" />
    <path
       d="m 142.25811,79 0,-9.786 1.652,0 0,8.218 4.466,0 0,1.568 -6.118,0 z"
       style="font-style:normal;font-variant:normal;font-weight:normal;font-stretch:normal;font-family:Montserrat;-inkscape-font-specification:Montserrat"
       id="path4164" />
    <path
       d="m 153.7878,69.214 1.652,0 0,9.786 -1.652,0 0,-9.786 z"
       style="font-style:normal;font-variant:normal;font-weight:normal;font-stretch:normal;font-family:Montserrat;-inkscape-font-specification:Montserrat"
       id="path4166" />
    <path
       d="m 165.4588,70.726 0,8.274 -1.652,0 0,-8.274 -2.968,0 0,-1.512 7.588,0 0,1.512 -2.968,0 z"
       style="font-style:normal;font-variant:normal;font-weight:normal;font-stretch:normal;font-family:Montserrat;-inkscape-font-specification:Montserrat"
       id="path4168" />
    <path
       d="m 173.81202,69.214 1.652,0 0,9.786 -1.652,0 0,-9.786 z"
       style="font-style:normal;font-variant:normal;font-weight:normal;font-stretch:normal;font-family:Montserrat;-inkscape-font-specification:Montserrat"
       id="path4170" />
    <path
       d="m 186.25302,77.502 q 0.854,0 1.47,-0.28 0.616,-0.294 1.288,-0.924 l 1.064,1.092 q -1.554,1.722 -3.78,1.722 -2.212,0 -3.682,-1.428 -1.456,-1.428 -1.456,-3.612 0,-2.184 1.484,-3.64 1.498,-1.456 3.766,-1.456 2.282,0 3.808,1.68 l -1.05,1.148 q -0.7,-0.672 -1.33,-0.938 -0.616,-0.266 -1.456,-0.266 -1.484,0 -2.492,0.966 -1.008,0.952 -1.008,2.45 0,1.484 0.994,2.492 1.008,0.994 2.38,0.994 z"
       style="font-style:normal;font-variant:normal;font-weight:normal;font-stretch:normal;font-family:Montserrat;-inkscape-font-specification:Montserrat"
       id="path4172" />
    <path
       d="m 197.08162,76.774 -0.98,2.226 -1.764,0 4.312,-9.786 1.764,0 4.312,9.786 -1.764,0 -0.98,-2.226 -4.9,0 z m 4.228,-1.526 -1.778,-4.032 -1.778,4.032 3.556,0 z"
       style="font-style:normal;font-variant:normal;font-weight:normal;font-stretch:normal;font-family:Montserrat;-inkscape-font-specification:Montserrat"
       id="path4174" />
    <path
       d="m 209.68624,79 0,-9.786 1.652,0 0,8.218 4.466,0 0,1.568 -6.118,0 z"
       style="font-style:normal;font-variant:normal;font-weight:normal;font-stretch:normal;font-family:Montserrat;-inkscape-font-specification:Montserrat"
       id="path4176" />
    <path
       d="m 230.03005,76.774 -0.98,2.226 -1.764,0 4.312,-9.786 1.764,0 4.312,9.786 -1.764,0 -0.98,-2.226 -4.9,0 z m 4.228,-1.526 -1.778,-4.032 -1.778,4.032 3.556,0 z"
       style="font-style:normal;font-variant:normal;font-weight:normal;font-stretch:normal;font-family:Montserrat;-inkscape-font-specification:Montserrat"
       id="path4178" />
    <path
       d="m 247.10068,77.502 q 0.854,0 1.47,-0.28 0.616,-0.294 1.288,-0.924 l 1.064,1.092 q -1.554,1.722 -3.78,1.722 -2.212,0 -3.682,-1.428 -1.456,-1.428 -1.456,-3.612 0,-2.184 1.484,-3.64 1.498,-1.456 3.766,-1.456 2.282,0 3.808,1.68 l -1.05,1.148 q -0.7,-0.672 -1.33,-0.938 -0.616,-0.266 -1.456,-0.266 -1.484,0 -2.492,0.966 -1.008,0.952 -1.008,2.45 0,1.484 0.994,2.492 1.008,0.994 2.38,0.994 z"
       style="font-style:normal;font-variant:normal;font-weight:normal;font-stretch:normal;font-family:Montserrat;-inkscape-font-specification:Montserrat"
       id="path4180" />
    <path
       d="m 260.23928,70.726 0,8.274 -1.652,0 0,-8.274 -2.968,0 0,-1.512 7.588,0 0,1.512 -2.968,0 z"
       style="font-style:normal;font-variant:normal;font-weight:normal;font-stretch:normal;font-family:Montserrat;-inkscape-font-specification:Montserrat"
       id="path4182" />
    <path
       d="m 268.59249,69.214 1.652,0 0,9.786 -1.652,0 0,-9.786 z"
       style="font-style:normal;font-variant:normal;font-weight:normal;font-stretch:normal;font-family:Montserrat;-inkscape-font-specification:Montserrat"
       id="path4184" />
    <path
       d="m 283.5395,71.524 q -0.994,-1.036 -2.45,-1.036 -1.456,0 -2.464,1.036 -0.994,1.036 -0.994,2.52 0,1.47 0.994,2.506 1.008,1.036 2.464,1.036 1.456,0 2.45,-1.036 1.008,-1.036 1.008,-2.506 0,-1.484 -1.008,-2.52 z m 1.218,6.132 q -1.484,1.442 -3.668,1.442 -2.184,0 -3.668,-1.442 -1.484,-1.456 -1.484,-3.612 0,-2.17 1.484,-3.612 1.484,-1.456 3.668,-1.456 2.184,0 3.668,1.456 1.484,1.442 1.484,3.612 0,2.156 -1.484,3.612 z"
       style="font-style:normal;font-variant:normal;font-weight:normal;font-stretch:normal;font-family:Montserrat;-inkscape-font-specification:Montserrat"
       id="path4186" />
    <path
       d="m 299.2613,69.214 1.652,0 0,9.786 -1.792,0 -5.544,-7.14 0,7.14 -1.652,0 0,-9.786 1.652,0 5.684,7.308 0,-7.308 z"
       style="font-style:normal;font-variant:normal;font-weight:normal;font-stretch:normal;font-family:Montserrat;-inkscape-font-specification:Montserrat"
       id="path4188" />
    <path
       d="m 319.12256,77.502 q 0.854,0 1.47,-0.28 0.616,-0.294 1.288,-0.924 l 1.064,1.092 q -1.554,1.722 -3.78,1.722 -2.212,0 -3.682,-1.428 -1.456,-1.428 -1.456,-3.612 0,-2.184 1.484,-3.64 1.498,-1.456 3.766,-1.456 2.282,0 3.808,1.68 l -1.05,1.148 q -0.7,-0.672 -1.33,-0.938 -0.616,-0.266 -1.456,-0.266 -1.484,0 -2.492,0.966 -1.008,0.952 -1.008,2.45 0,1.484 0.994,2.492 1.008,0.994 2.38,0.994 z"
       style="font-style:normal;font-variant:normal;font-weight:normal;font-stretch:normal;font-family:Montserrat;-inkscape-font-specification:Montserrat"
       id="path4190" />
    <path
       d="m 335.3184,71.524 q -0.994,-1.036 -2.45,-1.036 -1.456,0 -2.464,1.036 -0.994,1.036 -0.994,2.52 0,1.47 0.994,2.506 1.008,1.036 2.464,1.036 1.456,0 2.45,-1.036 1.008,-1.036 1.008,-2.506 0,-1.484 -1.008,-2.52 z m 1.218,6.132 q -1.484,1.442 -3.668,1.442 -2.184,0 -3.668,-1.442 -1.484,-1.456 -1.484,-3.612 0,-2.17 1.484,-3.612 1.484,-1.456 3.668,-1.456 2.184,0 3.668,1.456 1.484,1.442 1.484,3.612 0,2.156 -1.484,3.612 z"
       style="font-style:normal;font-variant:normal;font-weight:normal;font-stretch:normal;font-family:Montserrat;-inkscape-font-specification:Montserrat"
       id="path4192" />
    <path
       d="m 345.35621,79 -1.652,0 0,-9.786 2.576,0 2.954,6.146 2.954,-6.146 2.562,0 0,9.786 -1.652,0 0,-7.644 -3.416,6.79 -0.924,0 -3.402,-6.79 0,7.644 z"
       style="font-style:normal;font-variant:normal;font-weight:normal;font-stretch:normal;font-family:Montserrat;-inkscape-font-specification:Montserrat"
       id="path4194" />
    <path
       d="m 362.71011,79 -1.652,0 0,-9.786 2.576,0 2.954,6.146 2.954,-6.146 2.562,0 0,9.786 -1.652,0 0,-7.644 -3.416,6.79 -0.924,0 -3.402,-6.79 0,7.644 z"
       style="font-style:normal;font-variant:normal;font-weight:normal;font-stretch:normal;font-family:Montserrat;-inkscape-font-specification:Montserrat"
       id="path4196" />
    <path
       d="m 378.41202,69.214 1.652,0 0,9.786 -1.652,0 0,-9.786 z"
       style="font-style:normal;font-variant:normal;font-weight:normal;font-stretch:normal;font-family:Montserrat;-inkscape-font-specification:Montserrat"
       id="path4198" />
    <path
       d="m 390.08303,70.726 0,8.274 -1.652,0 0,-8.274 -2.968,0 0,-1.512 7.588,0 0,1.512 -2.968,0 z"
       style="font-style:normal;font-variant:normal;font-weight:normal;font-stretch:normal;font-family:Montserrat;-inkscape-font-specification:Montserrat"
       id="path4200" />
    <path
       d="m 402.13225,70.726 0,8.274 -1.652,0 0,-8.274 -2.968,0 0,-1.512 7.588,0 0,1.512 -2.968,0 z"
       style="font-style:normal;font-variant:normal;font-weight:normal;font-stretch:normal;font-family:Montserrat;-inkscape-font-specification:Montserrat"
       id="path4202" />
    <path
       d="m 417.35948,69.214 0,1.554 -5.222,0 0,2.59 4.69,0 0,1.47 -4.69,0 0,2.618 5.39,0 0,1.554 -7.042,0 0,-9.786 6.874,0 z"
       style="font-style:normal;font-variant:normal;font-weight:normal;font-stretch:normal;font-family:Montserrat;-inkscape-font-specification:Montserrat"
       id="path4204" />
    <path
       d="m 430.11961,69.214 0,1.554 -5.222,0 0,2.59 4.69,0 0,1.47 -4.69,0 0,2.618 5.39,0 0,1.554 -7.042,0 0,-9.786 6.874,0 z"
       style="font-style:normal;font-variant:normal;font-weight:normal;font-stretch:normal;font-family:Montserrat;-inkscape-font-specification:Montserrat"
       id="path4206" />
  </g>
  <g
     transform="translate(27,20)"
     sketch:type="MSLayerGroup"
     id="Group"
     style="fill:none;fill-rule:evenodd;stroke:none;stroke-width:1">
    <path
       style="fill:#223052"
       sketch:type="MSShapeGroup"
       id="Oval-3"
       d="M 16.094044,54.330176 C 6.4127413,49.082591 0,39.922501 0,29.5 0,13.2076 15.670034,0 35,0 54.329966,0 70,13.2076 70,29.5 70,45.7924 54.329966,59 35,59 c -2.467861,0 -4.876066,-0.21528 -7.199623,-0.624774 -5.965097,1.529033 -17.603873,5.66227 -16.756511,4.382468 1.040413,-1.571374 4.838491,-4.624816 5.050184,-8.427514 z" />
    <path
       style="fill:#ff4c62"
       sketch:type="MSShapeGroup"
       id="Oval-4"
       d="M 51.064948,62.75139 C 49.907167,62.914792 48.715947,63 47.5,63 36.178163,63 27,55.612698 27,46.5 27,37.387302 36.178163,30 47.5,30 58.821837,30 68,37.387302 68,46.5 68,52.709842 63.737908,58.118456 57.439765,60.93415 57.648844,63.383696 60,64.939821 60,65.84356 c 0,0.903422 -5.688278,-2.369453 -8.935052,-3.09217 z" />
    <polygon
       style="fill:#ffffff"
       points="35.177483,44.679712 36.5,42 37.822517,44.679712 40.779754,45.109423 38.639877,47.195288 39.145034,50.140577 36.5,48.75 33.854966,50.140577 34.360123,47.195288 32.220246,45.109423 "
       sketch:type="MSShapeGroup"
       id="Star-5" />
    <polygon
       style="fill:#ffffff"
       points="45.177483,44.679712 46.5,42 47.822517,44.679712 50.779754,45.109423 48.639877,47.195288 49.145034,50.140577 46.5,48.75 43.854966,50.140577 44.360123,47.195288 42.220246,45.109423 "
       sketch:type="MSShapeGroup"
       id="Star-6" />
    <polygon
       style="fill:#ffffff"
       points="56.177483,44.679712 57.5,42 58.822517,44.679712 61.779754,45.109423 59.639877,47.195288 60.145034,50.140577 57.5,48.75 54.854966,50.140577 55.360123,47.195288 53.220246,45.109423 "
       sketch:type="MSShapeGroup"
       id="Star-7" />
  </g>
</svg>
