<?xml version="1.0" encoding="UTF-8" standalone="no"?>
<svg
   xmlns:sketch="http://www.bohemiancoding.com/sketch/ns"
   xmlns:dc="http://purl.org/dc/elements/1.1/"
   xmlns:cc="http://creativecommons.org/ns#"
   xmlns:rdf="http://www.w3.org/1999/02/22-rdf-syntax-ns#"
   xmlns:svg="http://www.w3.org/2000/svg"
   xmlns="http://www.w3.org/2000/svg"
   xmlns:sodipodi="http://sodipodi.sourceforge.net/DTD/sodipodi-0.dtd"
   xmlns:inkscape="http://www.inkscape.org/namespaces/inkscape"
   width="625px"
   height="284px"
   viewBox="0 0 625 284"
   version="1.1"
   id="svg2"
   inkscape:version="0.91 r13725"
   sodipodi:docname="UD.svg">
  <metadata
     id="metadata27">
    <rdf:RDF>
      <cc:Work
         rdf:about="">
        <dc:format>image/svg+xml</dc:format>
        <dc:type
           rdf:resource="http://purl.org/dc/dcmitype/StillImage" />
        <dc:title>Artboard 20</dc:title>
      </cc:Work>
    </rdf:RDF>
  </metadata>
  <sodipodi:namedview
     pagecolor="#ffffff"
     bordercolor="#666666"
     borderopacity="1"
     objecttolerance="10"
     gridtolerance="10"
     guidetolerance="10"
     inkscape:pageopacity="0"
     inkscape:pageshadow="2"
     inkscape:window-width="1920"
     inkscape:window-height="1017"
     id="namedview25"
     showgrid="false"
     inkscape:zoom="1.8432"
     inkscape:cx="367.51932"
     inkscape:cy="120.43452"
     inkscape:window-x="-8"
     inkscape:window-y="-8"
     inkscape:window-maximized="1"
     inkscape:current-layer="svg2" />
  <!-- Generator: Sketch 3.0.1 (7597) - http://www.bohemiancoding.com/sketch -->
  <title
     id="title4">Artboard 20</title>
  <description>Created with Sketch.</description>
  <defs
     id="defs6" />
  <g
     style="font-size:45px;font-family:'Gotham Black';fill:#223052;fill-rule:evenodd;stroke:none;stroke-width:1"
     id="UNIFIED-DEMOCRACY">
    <path
       d="m 66.7775,214.8 q 2.16,2.52 5.85,2.52 3.69,0 5.85,-2.52 2.16,-2.52 2.16,-6.84 l 0,-17.415 5.31,0 0,17.64 q 0,6.795 -3.735,10.485 -3.735,3.645 -9.585,3.645 -5.85,0 -9.585,-3.645 -3.735,-3.69 -3.735,-10.485 l 0,-17.64 5.31,0 0,17.415 q 0,4.32 2.16,6.84 z"
       style="font-style:normal;font-variant:normal;font-weight:normal;font-stretch:normal;font-family:Montserrat;-inkscape-font-specification:Montserrat"
       id="path3379" />
    <path
       d="m 117.83352,190.545 5.31,0 0,31.455 -5.76,0 -17.820005,-22.95 0,22.95 -5.31,0 0,-31.455 5.31,0 18.270005,23.49 0,-23.49 z"
       style="font-style:normal;font-variant:normal;font-weight:normal;font-stretch:normal;font-family:Montserrat;-inkscape-font-specification:Montserrat"
       id="path3381" />
    <path
       d="m 131.8707,190.545 5.31,0 0,31.455 -5.31,0 0,-31.455 z"
       style="font-style:normal;font-variant:normal;font-weight:normal;font-stretch:normal;font-family:Montserrat;-inkscape-font-specification:Montserrat"
       id="path3383" />
    <path
       d="m 151.2432,195.495 0,8.64 13.95,0 0,4.905 -13.95,0 0,12.96 -5.31,0 0,-31.455 20.97,0 -0.045,4.95 -15.615,0 z"
       style="font-style:normal;font-variant:normal;font-weight:normal;font-stretch:normal;font-family:Montserrat;-inkscape-font-specification:Montserrat"
       id="path3385" />
    <path
       d="m 173.09141,190.545 5.31,0 0,31.455 -5.31,0 0,-31.455 z"
       style="font-style:normal;font-variant:normal;font-weight:normal;font-stretch:normal;font-family:Montserrat;-inkscape-font-specification:Montserrat"
       id="path3387" />
    <path
       d="m 209.24891,190.545 0,4.995 -16.785,0 0,8.325 15.075,0 0,4.725 -15.075,0 0,8.415 17.325,0 0,4.995 -22.635,0 0,-31.455 22.095,0 z"
       style="font-style:normal;font-variant:normal;font-weight:normal;font-stretch:normal;font-family:Montserrat;-inkscape-font-specification:Montserrat"
       id="path3389" />
    <path
       d="m 227.39727,190.545 q 8.46,0 13.005,4.14 4.545,4.095 4.545,11.43 0,7.335 -4.41,11.61 -4.41,4.275 -13.5,4.275 l -10.44,0 0,-31.455 10.8,0 z m 12.195,15.705 q 0,-10.8 -12.375,-10.8 l -5.31,0 0,21.555 5.895,0 q 5.715,0 8.73,-2.7 3.06,-2.745 3.06,-8.055 z"
       style="font-style:normal;font-variant:normal;font-weight:normal;font-stretch:normal;font-family:Montserrat;-inkscape-font-specification:Montserrat"
       id="path3391" />
    <path
       d="m 275.4425,190.545 q 8.46,0 13.005,4.14 4.545,4.095 4.545,11.43 0,7.335 -4.41,11.61 -4.41,4.275 -13.5,4.275 l -10.44,0 0,-31.455 10.8,0 z m 12.195,15.705 q 0,-10.8 -12.375,-10.8 l -5.31,0 0,21.555 5.895,0 q 5.715,0 8.73,-2.7 3.06,-2.745 3.06,-8.055 z"
       style="font-style:normal;font-variant:normal;font-weight:normal;font-stretch:normal;font-family:Montserrat;-inkscape-font-specification:Montserrat"
       id="path3393" />
    <path
       d="m 321.89375,190.545 0,4.995 -16.785,0 0,8.325 15.075,0 0,4.725 -15.075,0 0,8.415 17.325,0 0,4.995 -22.635,0 0,-31.455 22.095,0 z"
       style="font-style:normal;font-variant:normal;font-weight:normal;font-stretch:normal;font-family:Montserrat;-inkscape-font-specification:Montserrat"
       id="path3395" />
    <path
       d="m 334.55211,222 -5.31,0 0,-31.455 8.28,0 9.495,19.755 9.495,-19.755 8.235,0 0,31.455 -5.31,0 0,-24.57 -10.98,21.825 -2.97,0 -10.935,-21.825 0,24.57 z"
       style="font-style:normal;font-variant:normal;font-weight:normal;font-stretch:normal;font-family:Montserrat;-inkscape-font-specification:Montserrat"
       id="path3397" />
    <path
       d="m 395.86109,197.97 q -3.195,-3.33 -7.875,-3.33 -4.68,0 -7.92,3.33 -3.195,3.33 -3.195,8.1 0,4.725 3.195,8.055 3.24,3.33 7.92,3.33 4.68,0 7.875,-3.33 3.24,-3.33 3.24,-8.055 0,-4.77 -3.24,-8.1 z m 3.915,19.71 q -4.77,4.635 -11.79,4.635 -7.02,0 -11.79,-4.635 -4.77,-4.68 -4.77,-11.61 0,-6.975 4.77,-11.61 4.77,-4.68 11.79,-4.68 7.02,0 11.79,4.68 4.77,4.635 4.77,11.61 0,6.93 -4.77,11.61 z"
       style="font-style:normal;font-variant:normal;font-weight:normal;font-stretch:normal;font-family:Montserrat;-inkscape-font-specification:Montserrat"
       id="path3399" />
    <path
       d="m 425.59906,217.185 q 2.745,0 4.725,-0.9 1.98,-0.945 4.14,-2.97 l 3.42,3.51 q -4.995,5.535 -12.15,5.535 -7.11,0 -11.835,-4.59 -4.68,-4.59 -4.68,-11.61 0,-7.02 4.77,-11.7 4.815,-4.68 12.105,-4.68 7.335,0 12.24,5.4 l -3.375,3.69 q -2.25,-2.16 -4.275,-3.015 -1.98,-0.855 -4.68,-0.855 -4.77,0 -8.01,3.105 -3.24,3.06 -3.24,7.875 0,4.77 3.195,8.01 3.24,3.195 7.65,3.195 z"
       style="font-style:normal;font-variant:normal;font-weight:normal;font-stretch:normal;font-family:Montserrat;-inkscape-font-specification:Montserrat"
       id="path3401" />
    <path
       d="m 469.48882,200.76 q 0,7.785 -6.795,9.81 l 8.235,11.43 -6.75,0 -7.515,-10.575 -6.975,0 0,10.575 -5.31,0 0,-31.455 11.7,0 q 7.2,0 10.305,2.43 3.105,2.43 3.105,7.785 z m -13.185,5.85 q 4.5,0 6.12,-1.395 1.62,-1.395 1.62,-4.455 0,-3.105 -1.665,-4.23 -1.665,-1.17 -5.94,-1.17 l -6.75,0 0,11.25 6.615,0 z"
       style="font-style:normal;font-variant:normal;font-weight:normal;font-stretch:normal;font-family:Montserrat;-inkscape-font-specification:Montserrat"
       id="path3403" />
    <path
       d="m 481.61703,214.845 -3.15,7.155 -5.67,0 13.86,-31.455 5.67,0 13.86,31.455 -5.67,0 -3.15,-7.155 -15.75,0 z m 13.59,-4.905 -5.715,-12.96 -5.715,12.96 11.43,0 z"
       style="font-style:normal;font-variant:normal;font-weight:normal;font-stretch:normal;font-family:Montserrat;-inkscape-font-specification:Montserrat"
       id="path3405" />
    <path
       d="m 524.91547,217.185 q 2.745,0 4.725,-0.9 1.98,-0.945 4.14,-2.97 l 3.42,3.51 q -4.995,5.535 -12.15,5.535 -7.11,0 -11.835,-4.59 -4.68,-4.59 -4.68,-11.61 0,-7.02 4.77,-11.7 4.815,-4.68 12.105,-4.68 7.335,0 12.24,5.4 l -3.375,3.69 q -2.25,-2.16 -4.275,-3.015 -1.98,-0.855 -4.68,-0.855 -4.77,0 -8.01,3.105 -3.24,3.06 -3.24,7.875 0,4.77 3.195,8.01 3.24,3.195 7.65,3.195 z"
       style="font-style:normal;font-variant:normal;font-weight:normal;font-stretch:normal;font-family:Montserrat;-inkscape-font-specification:Montserrat"
       id="path3407" />
    <path
       d="m 556.07023,222 -5.4,0 0,-12.42 -11.7,-19.035 5.805,0 8.595,14.31 8.595,-14.31 5.805,0 -11.7,19.035 0,12.42 z"
       style="font-style:normal;font-variant:normal;font-weight:normal;font-stretch:normal;font-family:Montserrat;-inkscape-font-specification:Montserrat"
       id="path3409" />
  </g>
  <g
     style="font-weight:normal;font-size:14px;font-family:'Gotham Light';letter-spacing:3.60000038;fill:#4a4a4a;fill-rule:evenodd;stroke:none;stroke-width:1"
     id="POLITICAL-ACTION-COM">
    <path
       d="m 157.08999,240.214 q 2.226,0 3.248,0.854 1.022,0.854 1.022,2.632 0,1.778 -1.05,2.604 -1.036,0.826 -3.192,0.826 l -1.736,0 0,2.87 -1.652,0 0,-9.786 3.36,0 z m 0.21,5.418 q 1.372,0 1.862,-0.518 0.504,-0.532 0.504,-1.54 0,-1.022 -0.63,-1.442 -0.63,-0.42 -1.974,-0.42 l -1.68,0 0,3.92 1.918,0 z"
       style="font-style:normal;font-variant:normal;font-weight:normal;font-stretch:normal;font-family:Montserrat;-inkscape-font-specification:Montserrat"
       id="path3412" />
    <path
       d="m 173.87231,242.524 q -0.994,-1.036 -2.45,-1.036 -1.456,0 -2.464,1.036 -0.994,1.036 -0.994,2.52 0,1.47 0.994,2.506 1.008,1.036 2.464,1.036 1.456,0 2.45,-1.036 1.008,-1.036 1.008,-2.506 0,-1.484 -1.008,-2.52 z m 1.218,6.132 q -1.484,1.442 -3.668,1.442 -2.184,0 -3.668,-1.442 -1.484,-1.456 -1.484,-3.612 0,-2.17 1.484,-3.612 1.484,-1.456 3.668,-1.456 2.184,0 3.668,1.456 1.484,1.442 1.484,3.612 0,2.156 -1.484,3.612 z"
       style="font-style:normal;font-variant:normal;font-weight:normal;font-stretch:normal;font-family:Montserrat;-inkscape-font-specification:Montserrat"
       id="path3414" />
    <path
       d="m 182.25812,250 0,-9.786 1.652,0 0,8.218 4.466,0 0,1.568 -6.118,0 z"
       style="font-style:normal;font-variant:normal;font-weight:normal;font-stretch:normal;font-family:Montserrat;-inkscape-font-specification:Montserrat"
       id="path3416" />
    <path
       d="m 193.78781,240.214 1.652,0 0,9.786 -1.652,0 0,-9.786 z"
       style="font-style:normal;font-variant:normal;font-weight:normal;font-stretch:normal;font-family:Montserrat;-inkscape-font-specification:Montserrat"
       id="path3418" />
    <path
       d="m 205.45881,241.726 0,8.274 -1.652,0 0,-8.274 -2.968,0 0,-1.512 7.588,0 0,1.512 -2.968,0 z"
       style="font-style:normal;font-variant:normal;font-weight:normal;font-stretch:normal;font-family:Montserrat;-inkscape-font-specification:Montserrat"
       id="path3420" />
    <path
       d="m 213.81203,240.214 1.652,0 0,9.786 -1.652,0 0,-9.786 z"
       style="font-style:normal;font-variant:normal;font-weight:normal;font-stretch:normal;font-family:Montserrat;-inkscape-font-specification:Montserrat"
       id="path3422" />
    <path
       d="m 226.25303,248.502 q 0.854,0 1.47,-0.28 0.616,-0.294 1.288,-0.924 l 1.064,1.092 q -1.554,1.722 -3.78,1.722 -2.212,0 -3.682,-1.428 -1.456,-1.428 -1.456,-3.612 0,-2.184 1.484,-3.64 1.498,-1.456 3.766,-1.456 2.282,0 3.808,1.68 l -1.05,1.148 q -0.7,-0.672 -1.33,-0.938 -0.616,-0.266 -1.456,-0.266 -1.484,0 -2.492,0.966 -1.008,0.952 -1.008,2.45 0,1.484 0.994,2.492 1.008,0.994 2.38,0.994 z"
       style="font-style:normal;font-variant:normal;font-weight:normal;font-stretch:normal;font-family:Montserrat;-inkscape-font-specification:Montserrat"
       id="path3424" />
    <path
       d="m 237.08162,247.774 -0.98,2.226 -1.764,0 4.312,-9.786 1.764,0 4.312,9.786 -1.764,0 -0.98,-2.226 -4.9,0 z m 4.228,-1.526 -1.778,-4.032 -1.778,4.032 3.556,0 z"
       style="font-style:normal;font-variant:normal;font-weight:normal;font-stretch:normal;font-family:Montserrat;-inkscape-font-specification:Montserrat"
       id="path3426" />
    <path
       d="m 249.68625,250 0,-9.786 1.652,0 0,8.218 4.466,0 0,1.568 -6.118,0 z"
       style="font-style:normal;font-variant:normal;font-weight:normal;font-stretch:normal;font-family:Montserrat;-inkscape-font-specification:Montserrat"
       id="path3428" />
    <path
       d="m 270.03006,247.774 -0.98,2.226 -1.764,0 4.312,-9.786 1.764,0 4.312,9.786 -1.764,0 -0.98,-2.226 -4.9,0 z m 4.228,-1.526 -1.778,-4.032 -1.778,4.032 3.556,0 z"
       style="font-style:normal;font-variant:normal;font-weight:normal;font-stretch:normal;font-family:Montserrat;-inkscape-font-specification:Montserrat"
       id="path3430" />
    <path
       d="m 287.10069,248.502 q 0.854,0 1.47,-0.28 0.616,-0.294 1.288,-0.924 l 1.064,1.092 q -1.554,1.722 -3.78,1.722 -2.212,0 -3.682,-1.428 -1.456,-1.428 -1.456,-3.612 0,-2.184 1.484,-3.64 1.498,-1.456 3.766,-1.456 2.282,0 3.808,1.68 l -1.05,1.148 q -0.7,-0.672 -1.33,-0.938 -0.616,-0.266 -1.456,-0.266 -1.484,0 -2.492,0.966 -1.008,0.952 -1.008,2.45 0,1.484 0.994,2.492 1.008,0.994 2.38,0.994 z"
       style="font-style:normal;font-variant:normal;font-weight:normal;font-stretch:normal;font-family:Montserrat;-inkscape-font-specification:Montserrat"
       id="path3432" />
    <path
       d="m 300.23929,241.726 0,8.274 -1.652,0 0,-8.274 -2.968,0 0,-1.512 7.588,0 0,1.512 -2.968,0 z"
       style="font-style:normal;font-variant:normal;font-weight:normal;font-stretch:normal;font-family:Montserrat;-inkscape-font-specification:Montserrat"
       id="path3434" />
    <path
       d="m 308.5925,240.214 1.652,0 0,9.786 -1.652,0 0,-9.786 z"
       style="font-style:normal;font-variant:normal;font-weight:normal;font-stretch:normal;font-family:Montserrat;-inkscape-font-specification:Montserrat"
       id="path3436" />
    <path
       d="m 323.5395,242.524 q -0.994,-1.036 -2.45,-1.036 -1.456,0 -2.464,1.036 -0.994,1.036 -0.994,2.52 0,1.47 0.994,2.506 1.008,1.036 2.464,1.036 1.456,0 2.45,-1.036 1.008,-1.036 1.008,-2.506 0,-1.484 -1.008,-2.52 z m 1.218,6.132 q -1.484,1.442 -3.668,1.442 -2.184,0 -3.668,-1.442 -1.484,-1.456 -1.484,-3.612 0,-2.17 1.484,-3.612 1.484,-1.456 3.668,-1.456 2.184,0 3.668,1.456 1.484,1.442 1.484,3.612 0,2.156 -1.484,3.612 z"
       style="font-style:normal;font-variant:normal;font-weight:normal;font-stretch:normal;font-family:Montserrat;-inkscape-font-specification:Montserrat"
       id="path3438" />
    <path
       d="m 339.26131,240.214 1.652,0 0,9.786 -1.792,0 -5.544,-7.14 0,7.14 -1.652,0 0,-9.786 1.652,0 5.684,7.308 0,-7.308 z"
       style="font-style:normal;font-variant:normal;font-weight:normal;font-stretch:normal;font-family:Montserrat;-inkscape-font-specification:Montserrat"
       id="path3440" />
    <path
       d="m 359.12257,248.502 q 0.854,0 1.47,-0.28 0.616,-0.294 1.288,-0.924 l 1.064,1.092 q -1.554,1.722 -3.78,1.722 -2.212,0 -3.682,-1.428 -1.456,-1.428 -1.456,-3.612 0,-2.184 1.484,-3.64 1.498,-1.456 3.766,-1.456 2.282,0 3.808,1.68 l -1.05,1.148 q -0.7,-0.672 -1.33,-0.938 -0.616,-0.266 -1.456,-0.266 -1.484,0 -2.492,0.966 -1.008,0.952 -1.008,2.45 0,1.484 0.994,2.492 1.008,0.994 2.38,0.994 z"
       style="font-style:normal;font-variant:normal;font-weight:normal;font-stretch:normal;font-family:Montserrat;-inkscape-font-specification:Montserrat"
       id="path3442" />
    <path
       d="m 375.3184,242.524 q -0.994,-1.036 -2.45,-1.036 -1.456,0 -2.464,1.036 -0.994,1.036 -0.994,2.52 0,1.47 0.994,2.506 1.008,1.036 2.464,1.036 1.456,0 2.45,-1.036 1.008,-1.036 1.008,-2.506 0,-1.484 -1.008,-2.52 z m 1.218,6.132 q -1.484,1.442 -3.668,1.442 -2.184,0 -3.668,-1.442 -1.484,-1.456 -1.484,-3.612 0,-2.17 1.484,-3.612 1.484,-1.456 3.668,-1.456 2.184,0 3.668,1.456 1.484,1.442 1.484,3.612 0,2.156 -1.484,3.612 z"
       style="font-style:normal;font-variant:normal;font-weight:normal;font-stretch:normal;font-family:Montserrat;-inkscape-font-specification:Montserrat"
       id="path3444" />
    <path
       d="m 385.35622,250 -1.652,0 0,-9.786 2.576,0 2.954,6.146 2.954,-6.146 2.562,0 0,9.786 -1.652,0 0,-7.644 -3.416,6.79 -0.924,0 -3.402,-6.79 0,7.644 z"
       style="font-style:normal;font-variant:normal;font-weight:normal;font-stretch:normal;font-family:Montserrat;-inkscape-font-specification:Montserrat"
       id="path3446" />
    <path
       d="m 402.71012,250 -1.652,0 0,-9.786 2.576,0 2.954,6.146 2.954,-6.146 2.562,0 0,9.786 -1.652,0 0,-7.644 -3.416,6.79 -0.924,0 -3.402,-6.79 0,7.644 z"
       style="font-style:normal;font-variant:normal;font-weight:normal;font-stretch:normal;font-family:Montserrat;-inkscape-font-specification:Montserrat"
       id="path3448" />
    <path
       d="m 418.41203,240.214 1.652,0 0,9.786 -1.652,0 0,-9.786 z"
       style="font-style:normal;font-variant:normal;font-weight:normal;font-stretch:normal;font-family:Montserrat;-inkscape-font-specification:Montserrat"
       id="path3450" />
    <path
       d="m 430.08304,241.726 0,8.274 -1.652,0 0,-8.274 -2.968,0 0,-1.512 7.588,0 0,1.512 -2.968,0 z"
       style="font-style:normal;font-variant:normal;font-weight:normal;font-stretch:normal;font-family:Montserrat;-inkscape-font-specification:Montserrat"
       id="path3452" />
    <path
       d="m 442.13226,241.726 0,8.274 -1.652,0 0,-8.274 -2.968,0 0,-1.512 7.588,0 0,1.512 -2.968,0 z"
       style="font-style:normal;font-variant:normal;font-weight:normal;font-stretch:normal;font-family:Montserrat;-inkscape-font-specification:Montserrat"
       id="path3454" />
    <path
       d="m 457.35949,240.214 0,1.554 -5.222,0 0,2.59 4.69,0 0,1.47 -4.69,0 0,2.618 5.39,0 0,1.554 -7.042,0 0,-9.786 6.874,0 z"
       style="font-style:normal;font-variant:normal;font-weight:normal;font-stretch:normal;font-family:Montserrat;-inkscape-font-specification:Montserrat"
       id="path3456" />
    <path
       d="m 470.11962,240.214 0,1.554 -5.222,0 0,2.59 4.69,0 0,1.47 -4.69,0 0,2.618 5.39,0 0,1.554 -7.042,0 0,-9.786 6.874,0 z"
       style="font-style:normal;font-variant:normal;font-weight:normal;font-stretch:normal;font-family:Montserrat;-inkscape-font-specification:Montserrat"
       id="path3458" />
  </g>
  <path
     d="M 273.71574,141.16733 C 254.00936,130.44218 241,111.9784 241,91 c 0,-33.137085 32.45936,-60 72.5,-60 40.04064,0 72.5,26.862915 72.5,60 0,33.13709 -32.45936,60 -72.5,60 -4.74685,0 -9.38716,-0.37754 -13.87946,-1.09832 -12.02167,2.90144 -38.37373,12.38857 -36.52842,9.58678 2.23272,-3.38999 10.51297,-10.04735 10.62362,-18.32113 z"
     id="Oval-3"
     sketch:type="MSShapeGroup"
     inkscape:connector-curvature="0"
     style="fill:#223052;fill-rule:evenodd;stroke:none;stroke-width:1" />
  <path
     d="M 347.04833,160.209 C 344.13407,160.72699 341.10642,161 338,161 c -23.19596,0 -42,-15.22232 -42,-34 0,-18.77768 18.80404,-34 42,-34 23.19596,0 42,15.22232 42,34 0,12.60915 -8.47889,23.61516 -21.07292,29.48547 0.64209,5.0422 5.07292,8.27484 5.07292,10.17558 0,1.86804 -10.36141,-4.50514 -16.95167,-6.45205 z"
     id="Oval-4"
     sketch:type="MSShapeGroup"
     inkscape:connector-curvature="0"
     style="fill:#ff4c62;fill-rule:evenodd;stroke:#ff4c62;stroke-width:3" />
  <polygon
     id="Star-5"
     sketch:type="MSShapeGroup"
     points="313.70802,123.65717 316.5,118 319.29198,123.65717 325.53504,124.56434 321.01752,128.96783 322.08396,135.18566 316.5,132.25 310.91604,135.18566 311.98248,128.96783 307.46496,124.56434 "
     style="fill:#ffffff;fill-rule:evenodd;stroke:none;stroke-width:1" />
  <polygon
     id="Star-6"
     sketch:type="MSShapeGroup"
     points="335.70802,123.65717 338.5,118 341.29198,123.65717 347.53504,124.56434 343.01752,128.96783 344.08396,135.18566 338.5,132.25 332.91604,135.18566 333.98248,128.96783 329.46496,124.56434 "
     style="fill:#ffffff;fill-rule:evenodd;stroke:none;stroke-width:1" />
  <polygon
     id="Star-7"
     sketch:type="MSShapeGroup"
     points="357.70802,123.65717 360.5,118 363.29198,123.65717 369.53504,124.56434 365.01752,128.96783 366.08396,135.18566 360.5,132.25 354.91604,135.18566 355.98248,128.96783 351.46496,124.56434 "
     style="fill:#ffffff;fill-rule:evenodd;stroke:none;stroke-width:1" />
</svg>
