<?xml version="1.0" encoding="UTF-8" standalone="no"?>
<svg
   xmlns:sketch="http://www.bohemiancoding.com/sketch/ns"
   xmlns:dc="http://purl.org/dc/elements/1.1/"
   xmlns:cc="http://creativecommons.org/ns#"
   xmlns:rdf="http://www.w3.org/1999/02/22-rdf-syntax-ns#"
   xmlns:svg="http://www.w3.org/2000/svg"
   xmlns="http://www.w3.org/2000/svg"
   xmlns:sodipodi="http://sodipodi.sourceforge.net/DTD/sodipodi-0.dtd"
   xmlns:inkscape="http://www.inkscape.org/namespaces/inkscape"
   width="625px"
   height="284px"
   viewBox="0 0 625 284"
   version="1.1"
   id="svg2"
   inkscape:version="0.91 r13725"
   sodipodi:docname="UD.svg">
  <metadata
     id="metadata27">
    <rdf:RDF>
      <cc:Work
         rdf:about="">
        <dc:format>image/svg+xml</dc:format>
        <dc:type
           rdf:resource="http://purl.org/dc/dcmitype/StillImage" />
      </cc:Work>
    </rdf:RDF>
  </metadata>
  <sodipodi:namedview
     pagecolor="#ffffff"
     bordercolor="#666666"
     borderopacity="1"
     objecttolerance="10"
     gridtolerance="10"
     guidetolerance="10"
     inkscape:pageopacity="0"
     inkscape:pageshadow="2"
     inkscape:window-width="1920"
     inkscape:window-height="1017"
     id="namedview25"
     showgrid="false"
     inkscape:zoom="1.3033392"
     inkscape:cx="195.65838"
     inkscape:cy="49.251153"
     inkscape:window-x="-8"
     inkscape:window-y="-8"
     inkscape:window-maximized="1"
     inkscape:current-layer="svg2" />
  <!-- Generator: Sketch 3.0.1 (7597) - http://www.bohemiancoding.com/sketch -->
  <title
     id="title4">Artboard 20</title>
  <description>Created with Sketch.</description>
  <defs
     id="defs6" />
  <g
     style="font-size:45px;font-family:'Gotham Black';fill:#223052;fill-rule:evenodd;stroke:none;stroke-width:1"
     id="UNIFIED-DEMOCRACY">
    <path
       d="m 84.373379,208.86035 q 0,3.55957 -0.791016,6.21826 -0.769043,2.63672 -2.548828,4.39453 -1.691895,1.66993 -3.955078,2.43897 -2.263184,0.76904 -5.273438,0.76904 -3.076171,0 -5.361328,-0.81299 -2.285156,-0.81298 -3.845215,-2.39502 -1.779785,-1.80175 -2.5708,-4.35058 -0.769043,-2.54883 -0.769043,-6.26221 l 0,-19.57764 4.350586,0 0,19.79737 q 0,2.65869 0.351562,4.19678 0.373535,1.53808 1.230469,2.79052 0.966797,1.42823 2.614746,2.15332 1.669922,0.7251 3.999023,0.7251 2.351075,0 3.999024,-0.70312 1.647949,-0.7251 2.636719,-2.1753 0.856933,-1.25244 1.208496,-2.85644 0.373535,-1.62598 0.373535,-4.021 l 0,-19.90723 4.350586,0 0,19.57764 z"
       style=""
       id="path4179" />
    <path
       d="m 117.66195,222 -5.3833,0 -15.512693,-29.26758 0,29.26758 -4.064942,0 0,-32.71729 6.745606,0 14.150389,26.71875 0,-26.71875 4.06494,0 0,32.71729 z"
       style=""
       id="path4181" />
    <path
       d="m 137.89877,222 -12.91992,0 0,-3.33984 4.28467,0 0,-26.0376 -4.28467,0 0,-3.33985 12.91992,0 0,3.33985 -4.28467,0 0,26.0376 4.28467,0 0,3.33984 z"
       style=""
       id="path4183" />
    <path
       d="m 166.2435,193.1499 -16.54541,0 0,9.22852 14.2163,0 0,3.86719 -14.2163,0 0,15.75439 -4.35059,0 0,-32.71729 20.896,0 0,3.86719 z"
       style=""
       id="path4185" />
    <path
       d="m 182.72299,222 -12.91992,0 0,-3.33984 4.28466,0 0,-26.0376 -4.28466,0 0,-3.33985 12.91992,0 0,3.33985 -4.28467,0 0,26.0376 4.28467,0 0,3.33984 z"
       style=""
       id="path4187" />
    <path
       d="m 211.72689,222 -21.55517,0 0,-32.71729 21.55517,0 0,3.86719 -17.20459,0 0,8.96485 17.20459,0 0,3.86718 -17.20459,0 0,12.15088 17.20459,0 0,3.86719 z"
       style=""
       id="path4189" />
    <path
       d="m 246.28988,205.67432 q 0,4.46045 -1.95556,8.08593 -1.9336,3.62549 -5.16358,5.625 -2.24121,1.38428 -5.00976,1.99952 Q 231.41439,222 226.91,222 l -8.26172,0 0,-32.71729 8.17383,0 q 4.79004,0 7.60254,0.70313 2.83447,0.68115 4.79004,1.88965 3.33984,2.0874 5.20752,5.55908 1.86767,3.47168 1.86767,8.23975 z m -4.54834,-0.0659 q 0,-3.84522 -1.34033,-6.48194 -1.34033,-2.63671 -3.99902,-4.15283 -1.9336,-1.09863 -4.10889,-1.51611 -2.17529,-0.43945 -5.20752,-0.43945 l -4.08691,0 0,25.24658 4.08691,0 q 3.14209,0 5.47119,-0.46143 2.35108,-0.46142 4.30664,-1.71386 2.43897,-1.56006 3.64746,-4.10889 1.23047,-2.54883 1.23047,-6.37207 z"
       style=""
       id="path4191" />
    <path
       d="m 292.31363,205.67432 q 0,4.46045 -1.95557,8.08593 -1.93359,3.62549 -5.16357,5.625 -2.24121,1.38428 -5.00977,1.99952 Q 277.43814,222 272.93375,222 l -8.26172,0 0,-32.71729 8.17383,0 q 4.79003,0 7.60253,0.70313 2.83448,0.68115 4.79004,1.88965 3.33985,2.0874 5.20752,5.55908 1.86768,3.47168 1.86768,8.23975 z m -4.54834,-0.0659 q 0,-3.84522 -1.34033,-6.48194 -1.34033,-2.63671 -3.99903,-4.15283 -1.93359,-1.09863 -4.10888,-1.51611 -2.1753,-0.43945 -5.20752,-0.43945 l -4.08692,0 0,25.24658 4.08692,0 q 3.14209,0 5.47119,-0.46143 2.35107,-0.46142 4.30664,-1.71386 2.43896,-1.56006 3.64746,-4.10889 1.23047,-2.54883 1.23047,-6.37207 z"
       style="font-weight:normal;font-family:'Gotham Medium'"
       id="path4193" />
    <path
       d="m 320.944,222 -21.55518,0 0,-32.71729 21.55518,0 0,3.86719 -17.20459,0 0,8.96485 17.20459,0 0,3.86718 -17.20459,0 0,12.15088 17.20459,0 0,3.86719 z"
       style="font-weight:normal;font-family:'Gotham Medium'"
       id="path4195" />
    <path
       d="m 357.00113,222 -4.35059,0 0,-28.19092 -9.09668,19.18213 -2.59277,0 -9.03076,-19.18213 0,28.19092 -4.06494,0 0,-32.71729 5.93261,0 8.72315,18.21534 8.4375,-18.21534 6.04248,0 0,32.71729 z"
       style="font-weight:normal;font-family:'Gotham Medium'"
       id="path4197" />
    <path
       d="m 390.22379,193.04004 q 1.99951,2.19726 3.05419,5.3833 1.07666,3.18603 1.07666,7.229 0,4.04297 -1.09863,7.25098 -1.07666,3.18604 -3.03222,5.31738 -2.02149,2.21924 -4.79004,3.33985 -2.74659,1.1206 -6.28418,1.1206 -3.44971,0 -6.28418,-1.14258 -2.8125,-1.14257 -4.79004,-3.31787 -1.97754,-2.17529 -3.0542,-5.33935 -1.05469,-3.16406 -1.05469,-7.22901 0,-3.99902 1.05469,-7.16308 1.05469,-3.18604 3.07617,-5.44922 1.93359,-2.15332 4.79004,-3.2959 2.87842,-1.14258 6.26221,-1.14258 3.51562,0 6.30615,1.16455 2.8125,1.14258 4.76807,3.27393 z m -0.39551,12.6123 q 0,-6.37207 -2.85645,-9.82177 -2.85644,-3.47168 -7.80029,-3.47168 -4.98779,0 -7.84424,3.47168 -2.83447,3.4497 -2.83447,9.82177 0,6.43799 2.90039,9.86573 2.90039,3.40576 7.77832,3.40576 4.87793,0 7.75635,-3.40576 2.90039,-3.42774 2.90039,-9.86573 z"
       style="font-weight:normal;font-family:'Gotham Medium'"
       id="path4199" />
    <path
       d="m 426.52261,219.62695 q -1.20849,0.52735 -2.19726,0.98877 -0.9668,0.46143 -2.54883,0.9668 -1.34033,0.41748 -2.92236,0.70312 -1.56006,0.30762 -3.44971,0.30762 -3.55957,0 -6.48193,-0.98877 -2.90039,-1.01074 -5.05372,-3.14209 -2.10937,-2.0874 -3.29589,-5.29541 -1.18653,-3.22998 -1.18653,-7.49267 0,-4.04297 1.14258,-7.22901 1.14258,-3.18603 3.2959,-5.3833 2.0874,-2.13135 5.03174,-3.25195 2.96631,-1.12061 6.56982,-1.12061 2.63672,0 5.25147,0.63721 2.63672,0.63721 5.84472,2.24121 l 0,5.16358 -0.32959,0 q -2.70263,-2.26319 -5.36132,-3.2959 -2.6587,-1.03272 -5.69092,-1.03272 -2.48291,0 -4.48242,0.81299 -1.97754,0.79102 -3.5376,2.48291 -1.51612,1.64795 -2.37305,4.17481 -0.83496,2.50488 -0.83496,5.80078 0,3.4497 0.92285,5.93261 0.94483,2.48291 2.41699,4.04297 1.53809,1.62598 3.58155,2.41699 2.06543,0.76905 4.35058,0.76905 3.14209,0 5.88867,-1.07666 2.74659,-1.07666 5.14161,-3.22998 l 0.30761,0 0,5.09765 z"
       style="font-weight:normal;font-family:'Gotham Medium'"
       id="path4201" />
    <path
       d="m 459.78922,222 -5.64698,0 -10.94238,-13.00781 -6.13037,0 0,13.00781 -4.35059,0 0,-32.71729 9.1626,0 q 2.96631,0 4.94385,0.39551 1.97754,0.37354 3.55957,1.36231 1.77978,1.1206 2.76855,2.83447 1.01075,1.69189 1.01075,4.30664 0,3.5376 -1.77979,5.93262 -1.77979,2.37304 -4.8999,3.58154 L 459.78922,222 Z m -10.17334,-23.51074 q 0,-1.40625 -0.50538,-2.48291 -0.48339,-1.09864 -1.62597,-1.84571 -0.94483,-0.6372 -2.24121,-0.8789 -1.29639,-0.26367 -3.0542,-0.26367 l -5.11963,0 0,12.34863 4.39453,0 q 2.06543,0 3.60352,-0.35156 1.53808,-0.37354 2.61474,-1.36231 0.98877,-0.92285 1.4502,-2.10937 0.4834,-1.2085 0.4834,-3.0542 z"
       style="font-weight:normal;font-family:'Gotham Medium'"
       id="path4203" />
    <path
       d="m 489.80386,222 -4.63623,0 -3.208,-9.11865 -14.1504,0 -3.208,9.11865 -4.41651,0 11.90918,-32.71729 5.80078,0 L 489.80386,222 Z m -9.18457,-12.854 -5.73486,-16.06202 -5.75684,16.06202 11.4917,0 z"
       style="font-weight:normal;font-family:'Gotham Medium'"
       id="path4205" />
    <path
       d="m 520.03824,219.62695 q -1.2085,0.52735 -2.19727,0.98877 -0.96679,0.46143 -2.54883,0.9668 -1.34033,0.41748 -2.92236,0.70312 -1.56006,0.30762 -3.44971,0.30762 -3.55957,0 -6.48193,-0.98877 -2.90039,-1.01074 -5.05371,-3.14209 -2.10938,-2.0874 -3.2959,-5.29541 -1.18652,-3.22998 -1.18652,-7.49267 0,-4.04297 1.14258,-7.22901 1.14257,-3.18603 3.29589,-5.3833 2.08741,-2.13135 5.03174,-3.25195 2.96631,-1.12061 6.56983,-1.12061 2.63672,0 5.25146,0.63721 2.63672,0.63721 5.84473,2.24121 l 0,5.16358 -0.32959,0 q -2.70264,-2.26319 -5.36133,-3.2959 -2.65869,-1.03272 -5.69092,-1.03272 -2.48291,0 -4.48242,0.81299 -1.97754,0.79102 -3.5376,2.48291 -1.51611,1.64795 -2.37304,4.17481 -0.83496,2.50488 -0.83496,5.80078 0,3.4497 0.92285,5.93261 0.94482,2.48291 2.41699,4.04297 1.53808,1.62598 3.58154,2.41699 2.06543,0.76905 4.35059,0.76905 3.14209,0 5.88867,-1.07666 2.74658,-1.07666 5.1416,-3.22998 l 0.30762,0 0,5.09765 z"
       style="font-weight:normal;font-family:'Gotham Medium'"
       id="path4207" />
    <path
       d="m 549.39371,189.28271 -11.51367,18.36915 0,14.34814 -4.35059,0 0,-13.88672 -11.55762,-18.83057 4.81201,0 8.94288,14.63379 9.03076,-14.63379 4.63623,0 z"
       style="font-weight:normal;font-family:'Gotham Medium'"
       id="path4209" />
  </g>
  <g
     style="font-weight:normal;font-size:14px;font-family:'Gotham Light';letter-spacing:3.60000038;fill:#4a4a4a;fill-rule:evenodd;stroke:none;stroke-width:1"
     id="POLITICAL-ACTION-COM">
    <path
       d="m 160.39738,242.89746 q 0,0.67676 -0.23925,1.25781 -0.23243,0.57422 -0.65625,0.99805 -0.52637,0.52637 -1.24414,0.79297 -0.71778,0.25976 -1.81153,0.25976 l -1.35351,0 0,3.79395 -1.35352,0 0,-10.17871 2.76172,0 q 0.91602,0 1.55176,0.15723 0.63574,0.15039 1.12793,0.47851 0.58105,0.38965 0.89551,0.9707 0.32128,0.58106 0.32128,1.46973 z m -1.4082,0.0342 q 0,-0.52637 -0.18457,-0.91602 -0.18457,-0.38964 -0.56055,-0.63574 -0.32812,-0.21191 -0.75195,-0.30078 -0.41699,-0.0957 -1.05957,-0.0957 l -1.33984,0 0,4.06738 1.1416,0 q 0.82031,0 1.33301,-0.14355 0.51269,-0.15039 0.83398,-0.47168 0.32129,-0.32813 0.45117,-0.69043 0.13672,-0.36231 0.13672,-0.81348 z"
       style=""
       id="path4212" />
    <path
       d="m 173.37629,240.99023 q 0.62207,0.6836 0.9502,1.67481 0.33496,0.99121 0.33496,2.24902 0,1.25781 -0.3418,2.25586 -0.33496,0.99121 -0.94336,1.6543 -0.6289,0.69043 -1.49023,1.03906 -0.8545,0.34863 -1.95508,0.34863 -1.07324,0 -1.95508,-0.35546 -0.875,-0.35547 -1.49023,-1.03223 -0.61524,-0.67676 -0.9502,-1.66113 -0.32812,-0.98438 -0.32812,-2.24903 0,-1.24414 0.32812,-2.22851 0.32813,-0.99121 0.95703,-1.69532 0.60156,-0.66992 1.49024,-1.02539 0.8955,-0.35547 1.94824,-0.35547 1.09375,0 1.96191,0.36231 0.875,0.35547 1.4834,1.01855 z m -0.12305,3.92383 q 0,-1.98242 -0.88867,-3.05566 -0.88867,-1.08008 -2.42676,-1.08008 -1.55175,0 -2.44042,1.08008 -0.88184,1.07324 -0.88184,3.05566 0,2.00293 0.90234,3.06934 0.90235,1.05957 2.41992,1.05957 1.51758,0 2.41309,-1.05957 0.90234,-1.06641 0.90234,-3.06934 z"
       style=""
       id="path4214" />
    <path
       d="m 186.84739,250 -6.43946,0 0,-10.17871 1.35352,0 0,8.97558 5.08594,0 0,1.20313 z"
       style=""
       id="path4216" />
    <path
       d="m 195.38977,250 -4.01953,0 0,-1.03906 1.33301,0 0,-8.10059 -1.33301,0 0,-1.03906 4.01953,0 0,1.03906 -1.33301,0 0,8.10059 1.33301,0 0,1.03906 z"
       style=""
       id="path4218" />
    <path
       d="m 208.56692,241.02441 -3.63672,0 0,8.97559 -1.35352,0 0,-8.97559 -3.63672,0 0,-1.20312 8.62696,0 0,1.20312 z"
       style=""
       id="path4220" />
    <path
       d="m 217.13664,250 -4.01953,0 0,-1.03906 1.33301,0 0,-8.10059 -1.33301,0 0,-1.03906 4.01953,0 0,1.03906 -1.33301,0 0,8.10059 1.33301,0 0,1.03906 z"
       style=""
       id="path4222" />
    <path
       d="m 230.91536,249.26172 q -0.37598,0.16406 -0.68359,0.30762 -0.30079,0.14355 -0.79297,0.30078 -0.417,0.12988 -0.90918,0.21875 -0.48535,0.0957 -1.07324,0.0957 -1.10743,0 -2.01661,-0.30762 -0.90234,-0.31445 -1.57226,-0.97754 -0.65625,-0.64941 -1.02539,-1.64746 -0.36914,-1.00488 -0.36914,-2.33105 0,-1.25781 0.35547,-2.24903 0.35546,-0.99121 1.02539,-1.6748 0.64941,-0.66309 1.56543,-1.01172 0.92285,-0.34863 2.04394,-0.34863 0.82031,0 1.63379,0.19824 0.82031,0.19824 1.81836,0.69727 l 0,1.60644 -0.10254,0 q -0.84082,-0.7041 -1.66797,-1.02539 -0.82715,-0.32129 -1.77051,-0.32129 -0.77246,0 -1.39453,0.25293 -0.61523,0.2461 -1.10058,0.77246 -0.47168,0.5127 -0.73828,1.29883 -0.25977,0.7793 -0.25977,1.80469 0,1.07324 0.28711,1.8457 0.29394,0.77246 0.75195,1.25781 0.47852,0.50586 1.11426,0.75196 0.64258,0.23925 1.35352,0.23925 0.97753,0 1.83203,-0.33496 0.85449,-0.33496 1.59961,-1.00488 l 0.0957,0 0,1.58594 z"
       style=""
       id="path4224" />
    <path
       d="m 244.46848,250 -1.44238,0 -0.99805,-2.83691 -4.40234,0 -0.99805,2.83691 -1.37402,0 3.70508,-10.17871 1.80468,0 L 244.46848,250 Z m -2.85742,-3.99902 -1.78418,-4.99707 -1.79101,4.99707 3.57519,0 z"
       style=""
       id="path4226" />
    <path
       d="m 256.05286,250 -6.43946,0 0,-10.17871 1.35352,0 0,8.97558 5.08594,0 0,1.20313 z"
       style=""
       id="path4228" />
    <path
       d="m 277.55363,250 -1.44238,0 -0.99805,-2.83691 -4.40234,0 -0.99805,2.83691 -1.37402,0 3.70508,-10.17871 1.80469,0 L 277.55363,250 Z m -2.85742,-3.99902 -1.78418,-4.99707 -1.79101,4.99707 3.57519,0 z"
       style=""
       id="path4230" />
    <path
       d="m 290.55989,249.26172 q -0.37598,0.16406 -0.68359,0.30762 -0.30078,0.14355 -0.79297,0.30078 -0.41699,0.12988 -0.90918,0.21875 -0.48535,0.0957 -1.07324,0.0957 -1.10743,0 -2.01661,-0.30762 -0.90234,-0.31445 -1.57226,-0.97754 -0.65625,-0.64941 -1.02539,-1.64746 -0.36914,-1.00488 -0.36914,-2.33105 0,-1.25781 0.35547,-2.24903 0.35547,-0.99121 1.02539,-1.6748 0.64941,-0.66309 1.56543,-1.01172 0.92285,-0.34863 2.04394,-0.34863 0.82031,0 1.63379,0.19824 0.82031,0.19824 1.81836,0.69727 l 0,1.60644 -0.10254,0 q -0.84082,-0.7041 -1.66797,-1.02539 -0.82715,-0.32129 -1.7705,-0.32129 -0.77247,0 -1.39454,0.25293 -0.61523,0.2461 -1.10058,0.77246 -0.47168,0.5127 -0.73828,1.29883 -0.25977,0.7793 -0.25977,1.80469 0,1.07324 0.28711,1.8457 0.29395,0.77246 0.75195,1.25781 0.47852,0.50586 1.11426,0.75196 0.64258,0.23925 1.35352,0.23925 0.97754,0 1.83203,-0.33496 0.85449,-0.33496 1.59961,-1.00488 l 0.0957,0 0,1.58594 z"
       style=""
       id="path4232" />
    <path
       d="m 303.3474,241.02441 -3.63672,0 0,8.97559 -1.35352,0 0,-8.97559 -3.63672,0 0,-1.20312 8.62696,0 0,1.20312 z"
       style=""
       id="path4234" />
    <path
       d="m 311.91711,250 -4.01953,0 0,-1.03906 1.33301,0 0,-8.10059 -1.33301,0 0,-1.03906 4.01953,0 0,1.03906 -1.333,0 0,8.10059 1.333,0 0,1.03906 z"
       style=""
       id="path4236" />
    <path
       d="m 325.42239,240.99023 q 0.62207,0.6836 0.9502,1.67481 0.33496,0.99121 0.33496,2.24902 0,1.25781 -0.3418,2.25586 -0.33496,0.99121 -0.94336,1.6543 -0.6289,0.69043 -1.49023,1.03906 -0.85449,0.34863 -1.95508,0.34863 -1.07324,0 -1.95508,-0.35546 -0.875,-0.35547 -1.49023,-1.03223 -0.61524,-0.67676 -0.9502,-1.66113 -0.32812,-0.98438 -0.32812,-2.24903 0,-1.24414 0.32812,-2.22851 0.32813,-0.99121 0.95703,-1.69532 0.60157,-0.66992 1.49024,-1.02539 0.89551,-0.35547 1.94824,-0.35547 1.09375,0 1.96192,0.36231 0.875,0.35547 1.48339,1.01855 z m -0.12304,3.92383 q 0,-1.98242 -0.88867,-3.05566 -0.88868,-1.08008 -2.42676,-1.08008 -1.55176,0 -2.44043,1.08008 -0.88184,1.07324 -0.88184,3.05566 0,2.00293 0.90235,3.06934 0.90234,1.05957 2.41992,1.05957 1.51758,0 2.41308,-1.05957 0.90235,-1.06641 0.90235,-3.06934 z"
       style=""
       id="path4238" />
    <path
       d="m 340.21965,250 -1.6748,0 -4.82618,-9.10547 0,9.10547 -1.26464,0 0,-10.17871 2.09863,0 4.40234,8.3125 0,-8.3125 1.26465,0 0,10.17871 z"
       style=""
       id="path4240" />
    <path
       d="m 362.9099,249.26172 q -0.37598,0.16406 -0.6836,0.30762 -0.30078,0.14355 -0.79297,0.30078 -0.41699,0.12988 -0.90918,0.21875 -0.48535,0.0957 -1.07324,0.0957 -1.10742,0 -2.0166,-0.30762 -0.90234,-0.31445 -1.57226,-0.97754 -0.65625,-0.64941 -1.0254,-1.64746 -0.36914,-1.00488 -0.36914,-2.33105 0,-1.25781 0.35547,-2.24903 0.35547,-0.99121 1.02539,-1.6748 0.64942,-0.66309 1.56543,-1.01172 0.92285,-0.34863 2.04395,-0.34863 0.82031,0 1.63379,0.19824 0.82031,0.19824 1.81836,0.69727 l 0,1.60644 -0.10254,0 q -0.84082,-0.7041 -1.66797,-1.02539 -0.82715,-0.32129 -1.77051,-0.32129 -0.77246,0 -1.39453,0.25293 -0.61523,0.2461 -1.10059,0.77246 -0.47168,0.5127 -0.73828,1.29883 -0.25976,0.7793 -0.25976,1.80469 0,1.07324 0.28711,1.8457 0.29394,0.77246 0.75195,1.25781 0.47852,0.50586 1.11426,0.75196 0.64258,0.23925 1.35351,0.23925 0.97754,0 1.83203,-0.33496 0.8545,-0.33496 1.59961,-1.00488 l 0.0957,0 0,1.58594 z"
       style=""
       id="path4242" />
    <path
       d="m 376.02551,240.99023 q 0.62207,0.6836 0.9502,1.67481 0.33496,0.99121 0.33496,2.24902 0,1.25781 -0.3418,2.25586 -0.33496,0.99121 -0.94336,1.6543 -0.6289,0.69043 -1.49023,1.03906 -0.85449,0.34863 -1.95508,0.34863 -1.07324,0 -1.95508,-0.35546 -0.875,-0.35547 -1.49023,-1.03223 -0.61524,-0.67676 -0.9502,-1.66113 -0.32812,-0.98438 -0.32812,-2.24903 0,-1.24414 0.32812,-2.22851 0.32813,-0.99121 0.95703,-1.69532 0.60157,-0.66992 1.49024,-1.02539 0.89551,-0.35547 1.94824,-0.35547 1.09375,0 1.96191,0.36231 0.875,0.35547 1.4834,1.01855 z m -0.12304,3.92383 q 0,-1.98242 -0.88868,-3.05566 -0.88867,-1.08008 -2.42675,-1.08008 -1.55176,0 -2.44043,1.08008 -0.88184,1.07324 -0.88184,3.05566 0,2.00293 0.90234,3.06934 0.90235,1.05957 2.41993,1.05957 1.51757,0 2.41308,-1.05957 0.90235,-1.06641 0.90235,-3.06934 z"
       style=""
       id="path4244" />
    <path
       d="m 392.12161,250 -1.35351,0 0,-8.77051 -2.83008,5.96778 -0.80664,0 -2.80957,-5.96778 0,8.77051 -1.26465,0 0,-10.17871 1.8457,0 2.71387,5.66699 2.625,-5.66699 1.87988,0 0,10.17871 z"
       style=""
       id="path4246" />
    <path
       d="m 407.5341,250 -1.35351,0 0,-8.77051 -2.83008,5.96778 -0.80664,0 -2.80957,-5.96778 0,8.77051 -1.26465,0 0,-10.17871 1.8457,0 2.71387,5.66699 2.625,-5.66699 1.87988,0 0,10.17871 z"
       style=""
       id="path4248" />
    <path
       d="m 417.47102,250 -4.01953,0 0,-1.03906 1.33301,0 0,-8.10059 -1.33301,0 0,-1.03906 4.01953,0 0,1.03906 -1.333,0 0,8.10059 1.333,0 0,1.03906 z"
       style=""
       id="path4250" />
    <path
       d="m 430.64818,241.02441 -3.63672,0 0,8.97559 -1.35352,0 0,-8.97559 -3.63672,0 0,-1.20312 8.62696,0 0,1.20312 z"
       style=""
       id="path4252" />
    <path
       d="m 442.42397,241.02441 -3.63672,0 0,8.97559 -1.35352,0 0,-8.97559 -3.63672,0 0,-1.20312 8.62696,0 0,1.20312 z"
       style=""
       id="path4254" />
    <path
       d="m 454.11089,250 -6.70606,0 0,-10.17871 6.70606,0 0,1.20312 -5.35254,0 0,2.78907 5.35254,0 0,1.20312 -5.35254,0 0,3.78027 5.35254,0 0,1.20313 z"
       style=""
       id="path4256" />
    <path
       d="m 466.57024,250 -6.70606,0 0,-10.17871 6.70606,0 0,1.20312 -5.35254,0 0,2.78907 5.35254,0 0,1.20312 -5.35254,0 0,3.78027 5.35254,0 0,1.20313 z"
       style=""
       id="path4258" />
  </g>
  <path
     d="M 273.71574,141.16733 C 254.00936,130.44218 241,111.9784 241,91 c 0,-33.137085 32.45936,-60 72.5,-60 40.04064,0 72.5,26.862915 72.5,60 0,33.13709 -32.45936,60 -72.5,60 -4.74685,0 -9.38716,-0.37754 -13.87946,-1.09832 -12.02167,2.90144 -38.37373,12.38857 -36.52842,9.58678 2.23272,-3.38999 10.51297,-10.04735 10.62362,-18.32113 z"
     id="Oval-3"
     sketch:type="MSShapeGroup"
     inkscape:connector-curvature="0"
     style="fill:#223052;fill-rule:evenodd;stroke:none;stroke-width:1" />
  <path
     d="M 347.04833,160.209 C 344.13407,160.72699 341.10642,161 338,161 c -23.19596,0 -42,-15.22232 -42,-34 0,-18.77768 18.80404,-34 42,-34 23.19596,0 42,15.22232 42,34 0,12.60915 -8.47889,23.61516 -21.07292,29.48547 0.64209,5.0422 5.07292,8.27484 5.07292,10.17558 0,1.86804 -10.36141,-4.50514 -16.95167,-6.45205 z"
     id="Oval-4"
     sketch:type="MSShapeGroup"
     inkscape:connector-curvature="0"
     style="fill:#ff4c62;fill-rule:evenodd;stroke:#ff4c62;stroke-width:3" />
  <polygon
     id="Star-5"
     sketch:type="MSShapeGroup"
     points="313.70802,123.65717 316.5,118 319.29198,123.65717 325.53504,124.56434 321.01752,128.96783 322.08396,135.18566 316.5,132.25 310.91604,135.18566 311.98248,128.96783 307.46496,124.56434 "
     style="fill:#ffffff;fill-rule:evenodd;stroke:none;stroke-width:1" />
  <polygon
     id="Star-6"
     sketch:type="MSShapeGroup"
     points="335.70802,123.65717 338.5,118 341.29198,123.65717 347.53504,124.56434 343.01752,128.96783 344.08396,135.18566 338.5,132.25 332.91604,135.18566 333.98248,128.96783 329.46496,124.56434 "
     style="fill:#ffffff;fill-rule:evenodd;stroke:none;stroke-width:1" />
  <polygon
     id="Star-7"
     sketch:type="MSShapeGroup"
     points="357.70802,123.65717 360.5,118 363.29198,123.65717 369.53504,124.56434 365.01752,128.96783 366.08396,135.18566 360.5,132.25 354.91604,135.18566 355.98248,128.96783 351.46496,124.56434 "
     style="fill:#ffffff;fill-rule:evenodd;stroke:none;stroke-width:1" />
</svg>
