<?xml version="1.0" encoding="UTF-8" standalone="no"?>
<svg
   xmlns:dc="http://purl.org/dc/elements/1.1/"
   xmlns:cc="http://creativecommons.org/ns#"
   xmlns:rdf="http://www.w3.org/1999/02/22-rdf-syntax-ns#"
   xmlns:svg="http://www.w3.org/2000/svg"
   xmlns="http://www.w3.org/2000/svg"
   id="svg2"
   enable-background="new 0 0 600 600"
   viewBox="0 0 600.75 399.90256"
   x="0px"
   y="0px"
   version="1.1"
   width="600.75"
   height="399.90256"
   xml:space="preserve"><metadata
     id="metadata169"><rdf:RDF><cc:Work
         rdf:about=""><dc:format>image/svg+xml</dc:format><dc:type
           rdf:resource="http://purl.org/dc/dcmitype/StillImage" /><dc:title></dc:title></cc:Work></rdf:RDF></metadata><defs
     id="defs167" /><rect
     y="0.30594981"
     x="0.30594981"
     height="399.29065"
     width="600.13812"
     id="rect4357"
     style="opacity:1;fill:#1f3562;fill-opacity:1;stroke:#1f3562;stroke-width:0.61189961;stroke-miterlimit:4;stroke-dasharray:none;stroke-opacity:1" /><polygon
     transform="translate(-6.2168886,-98.017187)"
     points="102.01,180.25 109.07,180.25 119.5,182.72 127.3,184.56 127.3,180.25 128.75,173.97 130.24,167.31 131.89,159.5 134.16,151.24 134.16,147.32 106.26,141.11 87.701,135.16 87.936,138.94 89.284,138.94 87.936,142.71 89.284,149.44 84.972,156.59 83.086,156.59 83.894,152.95 85.107,150.39 84.568,146.28 82.412,146.28 80.448,143.79 79.179,144.73 69.882,138.53 68.939,141.63 69.882,146.28 68.939,150.52 70.152,152.54 68.939,155.91 70.421,156.59 71.499,157.8 69.613,157.8 68.939,159.68 70.556,160.9 68.939,164.13 67.727,164.13 67.727,165.48 74.371,169.27 75.558,175.37 79.076,178.29 86.525,178.29 90.641,180.25 94.366,180.25 "
     id="polygon24"
     style="fill:#25569d;fill-opacity:1;stroke:#1f3562;stroke-width:0.375;stroke-miterlimit:4;stroke-dasharray:none;stroke-opacity:1" /><polygon
     transform="translate(-6.2168886,-98.017187)"
     points="120.04,205.77 122.33,207.3 121.35,209.02 120.04,211.31 118.07,220.32 115.11,234.14 49.842,217.14 49.842,212.47 50.786,209.78 49.842,206 52.268,203.85 52.807,201.02 54.423,199.8 56.444,196.84 66.953,169.63 67.727,165.48 74.371,169.27 75.558,175.37 79.076,178.29 86.525,178.29 90.641,180.25 109.07,180.25 127.3,184.56 127.3,186.87 129.59,186.87 129.59,190.31 125.96,195.46 125,198.33 121.76,199.66 "
     id="polygon27"
     style="fill:#25569d;fill-opacity:1;stroke:#1f3562;stroke-width:0.375;stroke-miterlimit:4;stroke-dasharray:none;stroke-opacity:1" /><polygon
     transform="translate(-6.2168886,-98.017187)"
     points="148.88,188.78 148.88,190.69 146.96,194.32 149.26,195.65 152.12,193.36 153.84,194.7 153.84,199.76 155.37,202.72 154.22,204.82 156.9,205.96 157.85,211.31 160.9,211.31 164.53,210.36 168.73,211.31 171.79,211.31 173.32,209.21 175.54,213.66 170.64,244.92 115.08,234.04 120.04,211.31 122.33,207.3 120.04,205.77 121.76,199.66 125,198.33 125.96,195.46 129.59,190.31 129.59,186.87 127.3,186.87 127.3,184.56 127.3,180.25 130.6,165.48 132.18,158.17 134.16,151.24 134.16,147.32 142.12,149.1 140.28,161.28 142.12,166.44 141.2,168.92 144.48,173.5 146.96,179.23 151.17,181.52 "
     id="polygon30"
     style="fill:#25569d;fill-opacity:1;stroke:#1f3562;stroke-width:0.375;stroke-miterlimit:4;stroke-dasharray:none;stroke-opacity:1" /><polygon
     transform="translate(-6.2168886,-98.017187)"
     points="235.18,265.34 239.15,214.21 176.59,206.9 170.64,244.92 168.56,256.44 "
     id="polygon33"
     style="fill:#25569d;fill-opacity:1;stroke:#1f3562;stroke-width:0.375;stroke-miterlimit:4;stroke-dasharray:none;stroke-opacity:1" /><polygon
     transform="translate(-6.2168886,-98.017187)"
     points="141.2,168.92 144.48,173.5 146.96,179.23 151.17,181.52 148.88,188.78 148.88,190.69 146.96,194.32 149.26,195.65 152.12,193.36 153.84,194.7 153.84,199.76 155.37,202.72 154.22,204.82 156.9,205.96 157.85,211.31 160.9,211.31 164.53,210.36 168.73,211.31 171.79,211.31 173.32,209.21 175.54,213.66 176.59,206.9 239.15,214.21 243.42,164.07 210.66,160.42 155.44,152.09 142.12,149.1 140.28,161.28 142.12,166.44 "
     id="polygon36"
     style="fill:#25569d;fill-opacity:1;stroke:#1f3562;stroke-width:0.375;stroke-miterlimit:4;stroke-dasharray:none;stroke-opacity:1" /><polygon
     transform="translate(-6.2168886,-98.017187)"
     points="130.52,302.75 180.53,310.5 187.45,258.96 168.56,256.44 170.64,244.92 142.66,239.44 "
     id="polygon39"
     style="fill:#25569d;fill-opacity:1;stroke:#1f3562;stroke-width:0.375;stroke-miterlimit:4;stroke-dasharray:none;stroke-opacity:1" /><polygon
     transform="translate(-6.2168886,-98.017187)"
     points="121.45,316.11 120.86,313.49 121.57,312.18 124.91,312.18 125.63,313.96 127.3,314.68 130.52,302.75 142.66,239.44 115.08,234.04 88.107,227.01 78.485,265.39 119.9,326.26 121.33,321.96 120.38,321.36 "
     id="polygon42"
     style="fill:#25569d;fill-opacity:1;stroke:#1f3562;stroke-width:0.375;stroke-miterlimit:4;stroke-dasharray:none;stroke-opacity:1" /><path
     d="m 81.890111,128.99281 -9.622,38.375 41.415999,60.87 0,3.7 0.597,2.745 1.074,0.955 0,1.194 1.671,0.597 0,2.148 -1.91,-0.597 -2.268,2.506 -1.79,5.013 -1.552,1.79 -1.79,0 0.227,1.422 0.25,1.562 c 0,0 1.313,2.029 1.552,2.506 0.239,0.477 0,1.91 0,1.91 l -2.966,1.074 -25.059999,-2.703 -0.674,-9.835 -6.332,-8.758 -2.56,0 0.361,-1.855 -0.765,-2.187 -4.85,-1.347 -1.347,-1.213 -0.943,-2.829 -6.467,-3.099 -2.964,-0.539 -3.234,-2.56 2.021,-5.389 -2.021,-2.695 0.808,-0.943 0.135,-2.021 -1.752,-1.213 -2.829,-6.332 -0.539,-2.695 -2.964,-2.575 1.213,-3.757 1.886,-1.617 0,-2.156 -4.446,-4.716 0,-5.793 1.752,0.135 2.156,1.347 -1.482,-7.545 -2.021,2.425 -2.829,-3.638 0.404,-4.985 -4.716,-7.006 1.347,-1.752 -1.347,-1.886 1.213,-3.638 1.752,-2.156 -2.964,-9.162 0,-2.964 4.446,-7.006 2.425,-4.042 0,-7.046 38.304,10.02 z"
     id="path45"
     style="fill:#25569d;fill-opacity:1;stroke:#1f3562;stroke-width:0.375;stroke-miterlimit:4;stroke-dasharray:none;stroke-opacity:1" /><polygon
     transform="translate(-6.2168886,-98.017187)"
     points="114.41,349.29 113.93,346.31 115.72,346.31 117.28,344.52 119.07,339.51 121.33,337 123.24,337.6 123.24,335.45 121.57,334.85 121.57,333.66 120.5,332.7 119.9,329.96 119.9,326.26 121.33,321.96 120.38,321.36 121.45,316.11 120.86,313.49 121.57,312.18 124.91,312.18 125.63,313.96 127.3,314.68 130.52,302.75 180.53,310.5 170.34,382.02 149.24,379.3 113,356.53 113,354.78 115.96,353.71 115.96,351.8 "
     id="polygon48"
     style="fill:#25569d;fill-opacity:1;stroke:#1f3562;stroke-width:0.375;stroke-miterlimit:4;stroke-dasharray:none;stroke-opacity:1" /><polygon
     transform="translate(-6.2168886,-98.017187)"
     points="253.68,267.22 251.24,318.3 241.13,318.08 180.53,310.5 187.45,258.96 235.18,265.34 "
     id="polygon51"
     style="fill:#25569d;fill-opacity:1;stroke:#1f3562;stroke-width:0.375;stroke-miterlimit:4;stroke-dasharray:none;stroke-opacity:1" /><polygon
     transform="translate(-6.2168886,-98.017187)"
     points="180.53,310.5 241.13,318.08 235.21,382.02 196.89,376.96 197.61,379.57 180.36,377.68 179.55,383.2 170.34,382.02 "
     id="polygon54"
     style="fill:#25569d;fill-opacity:1;stroke:#1f3562;stroke-width:0.375;stroke-miterlimit:4;stroke-dasharray:none;stroke-opacity:1" /><polygon
     transform="translate(-6.2168886,-98.017187)"
     points="302.62,170.01 301.49,166.69 257.43,165.34 243.42,164.07 240.11,202.07 306.54,205.56 306.54,202.07 304.55,196.12 303.85,181.66 302.09,180.34 301.39,171.06 "
     id="polygon57"
     style="fill:#25569d;fill-opacity:1;stroke:#1f3562;stroke-width:0.375;stroke-miterlimit:4;stroke-dasharray:none;stroke-opacity:1" /><polygon
     transform="translate(-6.2168886,-98.017187)"
     points="308.22,241.98 306.54,244.92 307.35,250.03 300.52,244.92 298.07,244.92 295.26,246.7 293.34,243.9 290.01,244.92 288.79,241.8 237.15,239.44 240.11,202.07 306.54,205.56 304.2,209.58 304.2,211.16 308.22,214.21 308.22,236.12 306.21,236.12 306.21,239.44 "
     id="polygon60"
     style="fill:#25569d;fill-opacity:1;stroke:#1f3562;stroke-width:0.375;stroke-miterlimit:4;stroke-dasharray:none;stroke-opacity:1" /><polygon
     transform="translate(-6.2168886,-98.017187)"
     points="313.65,270.34 314.53,274.02 316.63,277.52 318.55,281.2 253.11,279.11 253.68,267.22 235.18,265.34 237.15,239.44 288.79,241.8 290.01,244.92 293.34,243.9 295.26,246.7 298.07,244.92 300.52,244.92 307.14,249.88 307.35,251.61 308.38,253.68 311.02,258.96 312.25,263.69 312.25,266.49 313.65,268.07 "
     id="polygon63"
     style="fill:#25569d;fill-opacity:1;stroke:#1f3562;stroke-width:0.375;stroke-miterlimit:4;stroke-dasharray:none;stroke-opacity:1" /><polygon
     transform="translate(-6.2168886,-98.017187)"
     points="253.11,279.11 318.55,281.2 322.17,283.96 320.36,288.52 322.57,290.38 325.94,294 325.94,319.92 251.24,318.3 "
     id="polygon66"
     style="fill:#25569d;fill-opacity:1;stroke:#1f3562;stroke-width:0.375;stroke-miterlimit:4;stroke-dasharray:none;stroke-opacity:1" /><polygon
     transform="translate(-6.2168886,-98.017187)"
     points="310.28,360.51 308.22,362.83 306.54,359.06 302.17,358.19 299.85,362.83 298.4,358.48 296.37,359.93 294.05,358.19 292.31,360.8 287.38,356.16 285.64,357.03 278.68,353.55 272.68,352.97 270.27,348.92 271.43,326.26 240.64,323.45 241.13,318.08 325.94,319.92 325.94,328.62 327.44,338.19 327.44,362.83 321.01,358.77 318.55,359.93 315.21,359.06 "
     id="polygon69"
     style="fill:#25569d;fill-opacity:1;stroke:#1f3562;stroke-width:0.375;stroke-miterlimit:4;stroke-dasharray:none;stroke-opacity:1" /><polygon
     transform="translate(-6.2168886,-98.017187)"
     points="336.65,403.48 336.65,407.1 335.35,412 327.93,413.92 326.14,413.65 326.14,411.5 323.18,412.58 322.91,414.19 323.99,416.08 321.29,418.23 320.35,420.66 312.8,424.84 309.57,426.18 308.76,424.84 305.26,426.32 306.74,428.34 302.97,429.28 302.43,431.98 301.08,431.17 299.6,431.84 299.6,433.59 298.39,435.34 296.64,435.21 295.56,436.56 296.37,438.44 295.56,441.14 293.94,442.76 295.02,444.51 293.81,448.01 296.37,456.9 298.39,458.92 298.39,460.68 296.64,459.46 295.29,460.68 292.19,458.38 285.99,457.17 276.7,453 273.33,446.26 272.25,442.49 272.25,439.93 271.44,437.5 269.42,437.5 267.8,435.08 267.8,433.86 263.76,429.01 260.93,422.41 259.72,418.1 253.79,413.11 253.79,411.36 251.1,409.61 246.92,409.61 243.82,408.94 242.47,407.32 240.99,409.21 237.62,409.34 234.93,415.54 232.5,418.1 230.62,418.1 218.24,409.24 216.2,406.11 216.87,402.47 215.12,400.18 215.12,398.7 200.3,383.2 200.3,381.32 197.61,379.57 196.89,376.96 235.21,382.02 240.64,323.45 271.43,326.26 270.27,348.92 272.68,352.97 278.68,353.55 285.64,357.03 287.38,356.16 292.31,360.8 294.05,358.19 296.37,359.93 298.4,358.48 299.85,362.83 302.17,358.19 306.54,359.06 308.22,362.83 310.28,360.51 315.21,359.06 318.55,359.93 321.01,358.77 329.42,363.73 331.36,362.83 332.62,363.73 332.62,383.2 335.12,387.5 337.76,393.48 337.76,398.06 "
     id="polygon72"
     style="fill:#25569d;fill-opacity:1;stroke:#1f3562;stroke-width:0.375;stroke-miterlimit:4;stroke-dasharray:none;stroke-opacity:1" /><polygon
     transform="translate(-6.2168886,-98.017187)"
     points="360.13,394.48 380.09,394.48 379.34,398.08 382.07,403.35 377.07,402.07 374.51,401.93 373.3,404.09 374.51,406.11 378.28,405.16 380.3,405.57 381.25,407.72 386.37,404.36 387.18,406.51 385.83,407.05 382.97,410.16 382.06,411.77 389.74,416.35 385.83,418.23 385.29,416.48 380.84,414.46 380.16,413.2 378.01,413.11 377.47,416.35 376.26,417.16 375.32,415.54 372.22,415.94 370.6,417.83 366.83,416.48 364.81,413.65 361.98,413.11 360.36,410.55 358.07,410.02 357.13,409.07 354.97,410.15 354.97,412.84 343.4,410.18 335.35,412 336.65,407.1 336.65,403.48 337.76,398.06 337.76,393.48 335.12,387.5 332.62,383.2 332.62,369.88 363.28,369.88 364.78,374.38 366.28,378.88 364.18,379.93 362.68,384.58 359.98,392.06 "
     id="polygon74"
     style="fill:#25569d;fill-opacity:1;stroke:#1f3562;stroke-width:0.375;stroke-miterlimit:4;stroke-dasharray:none;stroke-opacity:1" /><polygon
     transform="translate(-6.2168886,-98.017187)"
     points="369.2,345.93 368.86,349.67 366.14,352.56 364.61,355.79 363.59,360.38 361.18,362.25 363.93,366.16 363.28,369.88 332.62,369.88 332.62,363.73 331.36,362.83 329.42,363.73 327.44,362.57 327.44,338.19 325.94,328.62 325.94,325.35 371.07,323.45 372.43,326.88 369.37,330.11 376,330.11 373.96,334.87 372.77,342.19 "
     id="polygon76"
     style="fill:#25569d;fill-opacity:1;stroke:#1f3562;stroke-width:0.375;stroke-miterlimit:4;stroke-dasharray:none;stroke-opacity:1" /><polygon
     transform="translate(-6.2168886,-98.017187)"
     points="367.16,292.7 369.37,294.91 369.37,298.32 367.33,301.71 376,308.52 377.2,311.24 377.2,314.13 380.43,317.19 381.28,321.61 378.22,323.45 376,330.11 369.37,330.11 372.43,326.88 371.07,323.45 325.94,325.35 325.94,294 320.36,288.52 322.17,283.96 318.55,281.2 314.33,273.21 352.71,273.21 355.6,275.52 355.6,280.46 357.98,284.54 362.57,288.52 364.27,294 "
     id="polygon79"
     style="fill:#25569d;fill-opacity:1;stroke:#1f3562;stroke-width:0.375;stroke-miterlimit:4;stroke-dasharray:none;stroke-opacity:1" /><polygon
     transform="translate(-6.2168886,-98.017187)"
     points="341.14,220.6 340.8,212.26 341.48,210.39 339.61,208.35 339.78,205.56 344.37,202.07 345,193.77 349.52,189.02 354.97,184.34 359.02,181.78 366.29,177.06 363.06,176.12 357.94,176.93 355.24,175.45 349.32,177.6 345.95,176.53 344.06,174.77 342.58,175.18 340.02,172.08 333.69,171 329.91,171.94 325.47,169.79 323.45,170.6 322.23,169.12 322.25,166.32 321.7,162.65 319.14,162.11 318.33,165.88 301.49,166.69 302.62,170.01 301.39,171.06 302.09,180.34 303.85,181.66 304.73,196.68 306.54,202.07 306.54,205.56 304.2,209.58 304.2,211.16 308.22,214.21 308.22,236.12 355.6,234.88 355.6,231.14 349.82,226.89 348.8,224 344.88,223.15 345.05,221.45 "
     id="polygon82"
     style="fill:#25569d;fill-opacity:1;stroke:#1f3562;stroke-width:0.375;stroke-miterlimit:4;stroke-dasharray:none;stroke-opacity:1" /><polygon
     transform="translate(-6.2168886,-98.017187)"
     points="366.99,252.74 366.29,256.31 363.08,260.32 358.83,261.58 357.98,264.3 359.51,267.19 357.98,270.93 355.6,273.21 355.6,275.52 352.71,273.21 314.33,273.21 313.65,270.34 313.65,268.07 312.25,266.49 312.25,263.69 311.02,258.96 307.35,251.61 306.54,244.92 308.22,241.98 306.21,239.44 306.21,236.12 355.6,234.88 355.6,236.92 357.3,238.62 356.45,241.51 357.98,244.91 361.55,246.1 364.27,250.03 "
     id="polygon85"
     style="fill:#25569d;fill-opacity:1;stroke:#1f3562;stroke-width:0.375;stroke-miterlimit:4;stroke-dasharray:none;stroke-opacity:1" /><polygon
     transform="translate(-6.2168886,-98.017187)"
     points="388.79,219.24 389.97,217.23 391.62,213.31 392.3,210.21 390.68,212.1 389.06,214.79 386.64,216.54 384.62,219.5 383.4,219.1 384.21,216 387.71,211.29 389.06,207.51 390.54,204.95 390.95,201.59 392.43,201.45 392.7,203.34 394.05,201.59 395.53,201.59 395.66,203.34 397.01,202.8 397.68,200.64 401.46,200.37 402.69,199.12 405.36,197.54 409.94,197.95 411.29,199.43 412.5,197.54 417.89,197.68 421.26,196.2 413.49,193.25 409,193.64 408.19,191.35 408.19,189.19 404.15,190.67 399.3,191.48 396.2,193.1 393.91,194.85 390.95,194.58 387.98,194.72 384.48,191.88 381.52,190.81 378.82,190.81 377.34,191.35 378.15,188.11 379.09,185.69 382.19,183.4 378.28,182.99 376.4,185.96 374.11,187.3 371.68,189.73 366.02,192.29 362.12,195.52 358.75,194.85 355.65,195.93 355.51,193.23 356.59,192.02 354.86,191.62 348.51,194.98 345,193.77 344.37,202.07 339.78,205.56 339.61,208.35 341.48,210.39 340.8,212.26 341.14,220.6 345.05,221.45 344.88,223.15 348.8,224 349.82,226.89 355.6,231.14 355.6,236.92 357.3,238.62 356.45,241.51 357.98,244.91 361.55,246.1 362.48,247.45 387.91,246.28 387.85,245.1 385.83,234.86 387.18,231.23 386.77,226.51 388.66,223.41 "
     id="polygon88"
     style="fill:#25569d;fill-opacity:1;stroke:#1f3562;stroke-width:0.375;stroke-miterlimit:4;stroke-dasharray:none;stroke-opacity:1" /><polygon
     transform="translate(-6.2168886,-98.017187)"
     points="391.13,306.69 391.13,301.66 393.99,296.52 395.41,294 395.41,290.81 393.27,289.2 394.34,286.7 391.64,255.2 389.74,250.63 387.85,249.15 387.91,246.28 362.48,247.45 364.27,250.03 366.99,252.74 366.29,256.31 363.08,260.32 358.83,261.58 357.98,264.3 359.51,267.19 357.98,270.93 355.6,273.21 355.6,280.46 357.98,284.54 362.57,288.52 364.27,294 367.16,292.7 369.37,294.91 369.37,298.08 367.33,301.71 375.71,308.29 377.2,311.24 377.2,314.13 380.43,317.19 381.28,314.18 383.99,312.93 386.13,315.06 387.74,315.06 387.74,310.79 391.13,309 "
     id="polygon91"
     style="fill:#25569d;fill-opacity:1;stroke:#1f3562;stroke-width:0.375;stroke-miterlimit:4;stroke-dasharray:none;stroke-opacity:1" /><polygon
     transform="translate(-6.2168886,-98.017187)"
     points="412.01,299.05 411.45,301.13 408.8,301.13 407.51,299.85 405.91,301.13 405.83,303.14 404.86,303.7 402.94,302.42 401.17,302.82 400.93,305.15 399.08,305.15 397.64,304.06 392.82,304.06 391.13,306.27 391.13,301.66 395.41,294 395.41,290.81 393.27,289.2 394.34,286.7 391.64,255.2 394.72,256.56 398.63,254.13 417.63,252 421.48,289.25 420.76,290.7 418.51,291.9 416.58,291.5 416.02,294 "
     id="polygon94"
     style="fill:#25569d;fill-opacity:1;stroke:#1f3562;stroke-width:0.375;stroke-miterlimit:4;stroke-dasharray:none;stroke-opacity:1" /><polygon
     transform="translate(-6.2168886,-98.017187)"
     points="433.93,238.5 435.81,238.37 436.62,232.84 433.12,222.47 429.48,221.53 424.68,227.63 422.2,226.78 421.8,223.68 424.5,221.39 425.71,218.97 425.44,213.31 424.36,211.02 424.23,208.73 425.3,207.38 421.94,205.22 417.62,204.42 416.82,202.93 411.96,201.59 408.87,205.22 409.41,206.98 407.25,209.27 407.25,212.36 404.69,214.79 403.21,213.17 401.46,214.38 399.97,217.08 400.07,220.69 399.03,224.89 399.44,228.26 400.92,233.11 403.07,237.96 401.86,249.15 399.03,253.51 398.63,254.13 417.63,252 429.52,250.32 429.52,249.19 430.69,247.53 431.77,246.18 431.77,243.89 433.12,242.54 "
     id="polygon97"
     style="fill:#25569d;fill-opacity:1;stroke:#1f3562;stroke-width:0.375;stroke-miterlimit:4;stroke-dasharray:none;stroke-opacity:1" /><polygon
     transform="translate(-6.2168886,-98.017187)"
     points="458.32,273.93 455.3,277.83 452.88,277.83 451.02,281.73 451.02,283.96 447.68,283.96 447.68,287.49 444.89,291.95 439.69,287.68 437.46,289.91 433.56,289.91 431.89,291.02 430.22,289.16 427.62,289.16 424.83,285.26 421.14,286 417.63,252 429.52,250.32 429.62,252.11 431.64,251.71 435.95,253.59 440.39,254.27 444.17,251.57 446.19,252.51 449.96,247.93 452.25,247.26 456.88,244.36 459.75,260.32 458.32,262.04 458.32,263.53 456.88,265.02 459.75,266.87 458.32,271.89 "
     id="polygon100"
     style="fill:#25569d;fill-opacity:1;stroke:#1f3562;stroke-width:0.375;stroke-miterlimit:4;stroke-dasharray:none;stroke-opacity:1" /><polygon
     transform="translate(-6.2168886,-98.017187)"
     points="548.72,199.83 549.8,197.95 552.49,197.41 553.57,195.52 555.18,191.21 557.07,190.81 560.04,187.17 562.06,187.98 563.67,186.09 566.5,184.07 568.39,181.24 570.14,180.7 568.79,179.22 567.98,177.06 564.08,175.99 562.86,173.02 560.04,171.54 555.05,156.05 549.93,152.81 544.14,156.45 542.25,154.97 542.52,153.08 541.04,153.62 537.4,166.02 538.21,167.77 537.27,170.19 537.94,175.58 537.27,178.28 535.78,180.16 536.32,182.45 534.84,184.34 533.49,183.53 532.78,183.91 540.28,205.24 540.28,207.86 543.6,211.15 545.75,203.74 545.08,201.45 547.24,199.16 "
     id="polygon103"
     style="fill:#25569d;fill-opacity:1;stroke:#1f3562;stroke-width:0.375;stroke-miterlimit:4;stroke-dasharray:none;stroke-opacity:1" /><polygon
     transform="translate(-6.2168886,-98.017187)"
     points="528.73,205.95 527.78,208.21 527.78,215.12 528.61,219.28 539.8,216.55 541.23,214.28 543.19,213.71 543.6,211.15 540.28,207.86 540.28,205.24 532.78,183.91 531.2,184.74 529.99,187.17 530.26,189.46 530.26,192.5 531.23,194.52 530.26,197.62 527.78,199.4 527.78,201.59 528.97,203.57 "
     id="polygon106"
     style="fill:#25569d;fill-opacity:1;stroke:#1f3562;stroke-width:0.375;stroke-miterlimit:4;stroke-dasharray:none;stroke-opacity:1" /><polygon
     transform="translate(-6.2168886,-98.017187)"
     points="515.64,205 515.64,202.74 516.59,200.95 513.69,193.21 530.26,189.46 530.26,192.5 531.23,194.52 530.26,197.62 527.78,199.4 527.78,201.59 528.97,203.57 528.73,205.95 527.78,208.21 527.78,215.12 528.61,219.28 521.83,220.59 519.92,216.78 519.92,213.21 518.49,210 517.18,210 517.18,206.9 "
     id="polygon109"
     style="fill:#25569d;fill-opacity:1;stroke:#1f3562;stroke-width:0.375;stroke-miterlimit:4;stroke-dasharray:none;stroke-opacity:1" /><polygon
     transform="translate(-6.2168886,-98.017187)"
     points="545.65,230.57 547.24,228.4 549.66,227.45 550.2,228.8 551.82,227.45 554.24,226.65 554.24,224.22 552.62,220.99 551.14,222.47 551.95,223.95 551.95,225.7 549.93,226.11 548.04,225.03 546.02,222.34 542.66,221.66 544.54,216.41 543.19,213.71 541.23,214.28 539.8,216.55 521.83,220.59 521.83,229.88 537.3,226.31 540.88,225.71 540.88,227.14 542.3,227.86 544.21,227.86 "
     id="polygon112"
     style="fill:#25569d;fill-opacity:1;stroke:#1f3562;stroke-width:0.375;stroke-miterlimit:4;stroke-dasharray:none;stroke-opacity:1" /><polygon
     transform="translate(-6.2168886,-98.017187)"
     points="545.65,230.57 544.21,227.86 542.3,227.86 540.88,227.14 540.88,225.71 537.3,226.31 539.52,234.55 541.58,233.11 541.58,230.15 543.19,229.48 543.73,230.82 544.68,231.9 "
     id="polygon115"
     style="fill:#25569d;fill-opacity:1;stroke:#1f3562;stroke-width:0.375;stroke-miterlimit:4;stroke-dasharray:none;stroke-opacity:1" /><polygon
     transform="translate(-6.2168886,-98.017187)"
     points="522.46,241.67 523.85,240.24 524.57,238.45 523.14,237.74 522.46,229.73 537.3,226.31 539.52,234.55 536.73,235.94 531.74,237.16 528.64,238.5 525.95,240.52 523.52,243.08 "
     id="polygon118"
     style="fill:#25569d;fill-opacity:1;stroke:#1f3562;stroke-width:0.375;stroke-miterlimit:4;stroke-dasharray:none;stroke-opacity:1" /><polygon
     transform="translate(-6.2168886,-98.017187)"
     points="522.46,241.67 523.85,240.24 524.57,238.45 523.14,237.74 522.46,229.73 521.83,229.88 521.83,220.59 519.92,216.78 519.92,213.21 518.49,210 517.18,210 517.18,206.9 515.64,205 515.64,202.74 516.59,200.95 513.69,193.21 501.7,195.93 494.69,203.34 493.61,206.57 490.11,210.21 490.65,211.69 492,212.77 492.4,215.73 491.19,217.75 489.03,219.64 486.74,221.39 480.81,223.82 478.52,222.2 469.23,224.22 468.42,227.59 470.57,230.28 469.72,233.19 467.34,235.94 463.44,239.37 463.44,242.26 505.16,234.55 509.8,240.12 513.14,240.83 519.76,243.81 521.04,245.79 520.56,249.15 523.66,248.74 527.78,246.31 529.05,245.51 533.76,243.49 536.05,240.12 533.9,240.12 531.47,241.33 527.78,243.43 525.28,244.43 523.25,245.78 522.04,244.84 523.52,243.08 "
     id="polygon121"
     style="fill:#25569d;fill-opacity:1;stroke:#1f3562;stroke-width:0.375;stroke-miterlimit:4;stroke-dasharray:none;stroke-opacity:1" /><polygon
     transform="translate(-6.2168886,-98.017187)"
     points="515.73,256.25 513.23,253.25 511.73,253.25 511.6,252 509.48,252 510.23,247.45 508.98,245.75 511.1,244.36 511.96,240.58 509.8,240.12 505.16,234.55 463.44,242.26 463.44,239.37 461.82,240.79 460.2,241.2 458.54,243.08 456.88,244.36 459.75,260.32 462.48,271.75 506.35,264.25 507.35,261.62 509.98,262.62 512.35,260.32 513.1,258.25 "
     id="polygon124"
     style="fill:#25569d;fill-opacity:1;stroke:#1f3562;stroke-width:0.375;stroke-miterlimit:4;stroke-dasharray:none;stroke-opacity:1" /><polygon
     transform="translate(-6.2168886,-98.017187)"
     points="489.85,275.12 487.98,275.37 484.23,272.37 483.1,274.75 483.35,276.37 482.23,277 482.1,279.14 479.85,281.73 477.85,281.12 476.73,286.75 475.23,287.5 472.23,285.12 470.73,293.25 468.86,299.25 466.48,300.75 463.44,301.62 463.44,304.06 459.75,305.12 458.1,304.06 456.88,306.27 451.98,304.06 451.98,302.12 448.1,300.75 444.48,295.87 444.89,291.95 447.68,287.49 447.68,283.96 451.02,283.96 451.02,281.73 452.88,277.83 455.3,277.83 458.32,273.93 458.32,271.89 459.75,266.87 456.88,265.02 458.32,263.53 458.32,262.04 459.75,260.32 462.48,271.75 471.31,270.24 472.98,277 479.1,270.75 481.23,271.75 483.1,270.24 487.6,269.25 489.85,272.5 "
     id="polygon127"
     style="fill:#25569d;fill-opacity:1;stroke:#1f3562;stroke-width:0.375;stroke-miterlimit:4;stroke-dasharray:none;stroke-opacity:1" /><path
     d="m 483.63311,174.48281 1.5,0 1.875,1.5 0,1.375 2.125,0 2.375,2.125 -1.75,3.75 -0.25,2.625 2,0 1.125,-0.578 1.495,1.419 1.617,1.347 4.042,1.213 0.674,2.021 -0.135,2.425 1.617,2.275 -1.347,1.228 0,1.347 0.943,1.078 -1.751,0.135 0.269,2.156 1.886,0.539 1.751,-0.808 2.021,0.135 1.347,1.213 0.269,2.29 -25.051,5.729 c 0,0 -34.764,5.127 -34.764,4.752 0,-0.375 -16.382,1.709 -16.382,1.709 l 5.75,-3.25 0.776,-2.356 1.349,-0.519 6.75,-5.31 4.897,2.208 1.228,-2.208 1.648,1.06 3.682,-1.06 0,-2.44 3.045,-0.875 2.375,-1.5 1.875,-6 1.5,-8.125 3,2.375 1.5,-0.75 1.125,-5.625 2,0.61 2.25,-2.597 0.125,-2.138 1.125,-0.625 -0.25,-1.625 1.125,-2.375 3.75,3 1.875,-0.25 0,-2.63 z"
     id="path130"
     style="fill:#25569d;fill-opacity:1;stroke:#1f3562;stroke-width:0.375;stroke-miterlimit:4;stroke-dasharray:none;stroke-opacity:1" /><polygon
     transform="translate(-6.2168886,-98.017187)"
     points="381.28,314.18 383.99,312.93 386.13,315.06 387.74,315.06 387.74,310.79 391.13,309 391.13,306.27 392.82,304.06 397.64,304.06 399.08,305.15 400.93,305.15 401.17,302.82 402.94,302.42 404.86,303.7 405.83,303.14 405.91,301.13 407.51,299.85 408.8,301.13 411.45,301.13 412.01,299.05 416.02,294 416.58,291.5 418.51,291.9 420.76,290.7 421.48,289.25 421.14,286 424.83,285.26 427.62,289.16 430.22,289.16 431.89,291.02 433.56,289.91 437.46,289.91 439.69,287.68 444.89,291.95 444.48,295.87 448.1,300.75 451.98,302.12 451.98,304.06 445.23,309.37 443.88,309.89 443.1,312.25 437.36,315.5 394.73,319.92 392.11,319.25 392.11,321.62 378.22,323.45 381.28,321.61 380.43,317.19 "
     id="polygon133"
     style="fill:#25569d;fill-opacity:1;stroke:#1f3562;stroke-width:0.375;stroke-miterlimit:4;stroke-dasharray:none;stroke-opacity:1" /><polygon
     transform="translate(-6.2168886,-98.017187)"
     points="442.47,325.47 440.82,327.54 437.36,330.11 432.66,331.43 431.78,332.94 429.78,335.95 429.78,338.09 371.67,343.35 372.77,342.19 373.96,334.87 376,330.11 378.22,323.45 392.11,321.62 392.11,319.25 394.86,319.9 449,314.14 453.74,313.71 453.74,317.88 451.98,319.14 450.23,321.39 448.35,321.39 446.72,322.94 444.48,322.94 "
     id="polygon136"
     style="fill:#25569d;fill-opacity:1;stroke:#1f3562;stroke-width:0.375;stroke-miterlimit:4;stroke-dasharray:none;stroke-opacity:1" /><polygon
     transform="translate(-6.2168886,-98.017187)"
     points="469.56,334.91 481.34,333.15 494.02,342.56 494.96,341.84 498.79,341.1 500.48,339.69 501.56,335.64 506.82,329.18 511.53,327.16 513.69,325.54 513.69,323.92 511.4,325.27 507.89,325.94 506.68,324.19 508.84,324.06 510.32,322.98 511.13,320.82 509.92,319.21 510.18,317.72 511.8,317.05 512.48,318.26 513.69,318.67 515.57,317.72 517.19,315.7 517.19,311.26 515.84,311.8 514.9,313.28 513.15,311.26 508.97,312.74 508.03,311.39 515.04,307.35 515.04,305.46 513.55,303.31 489.85,308.53 454.36,313.75 453.74,313.71 453.74,317.88 451.98,319.14 450.23,321.39 448.35,321.39 446.72,322.94 444.48,322.94 440.82,327.54 437.36,330.11 432.66,331.43 429.78,335.95 429.78,338.09 430.36,338 444.48,336.01 449.08,334.36 451.51,332.38 465.82,331.05 466.59,332.04 468.68,332.26 "
     id="polygon139"
     style="fill:#25569d;fill-opacity:1;stroke:#1f3562;stroke-width:0.375;stroke-miterlimit:4;stroke-dasharray:none;stroke-opacity:1" /><polygon
     transform="translate(-6.2168886,-98.017187)"
     points="360.13,394.48 359.98,392.06 364.18,379.93 366.28,378.88 363.28,369.88 363.93,366.16 361.18,362.25 363.59,360.38 364.61,355.79 366.14,352.56 368.86,349.67 369.2,345.93 371.67,343.35 393.66,341.36 393.66,383.2 395.39,400.45 390.54,399.78 382.07,403.35 379.34,398.08 380.09,394.48 "
     id="polygon142"
     style="fill:#25569d;fill-opacity:1;stroke:#1f3562;stroke-width:0.375;stroke-miterlimit:4;stroke-dasharray:none;stroke-opacity:1" /><polygon
     transform="translate(-6.2168886,-98.017187)"
     points="429.78,386.31 431.72,389.48 404.32,392.06 404.09,395.37 405.77,398.97 404.15,400.72 402,400.58 400.78,398.56 400.11,395.2 397.95,399.91 396.47,398.97 395.39,400.45 393.66,383.2 393.66,341.36 419.25,339.04 427.87,369.88 429.78,371.59 429.78,373.63 428.55,379.29 430.59,383.2 "
     id="polygon145"
     style="fill:#25569d;fill-opacity:1;stroke:#1f3562;stroke-width:0.375;stroke-miterlimit:4;stroke-dasharray:none;stroke-opacity:1" /><polygon
     transform="translate(-6.2168886,-98.017187)"
     points="470.71,375.26 473.48,370.15 470.22,369.88 469.99,364.12 467.17,362.83 467.17,359.82 459.75,355.74 459.75,351.89 451.98,348.27 449.61,343.35 442.81,340.46 444.48,336.01 429.78,338.09 419.25,339.04 427.87,369.88 429.78,371.59 429.78,373.63 428.55,379.29 430.59,383.2 429.78,386.31 431.72,389.48 433.53,392.06 461.61,390.77 464.78,394.05 464.78,386.31 470.1,387.27 469.23,380.1 "
     id="polygon148"
     style="fill:#25569d;fill-opacity:1;stroke:#1f3562;stroke-width:0.375;stroke-miterlimit:4;stroke-dasharray:none;stroke-opacity:1" /><polygon
     transform="translate(-6.2168886,-98.017187)"
     points="464.78,386.31 470.1,387.27 470.44,389.67 471.52,391.29 471.92,393.98 473.81,396.27 473.67,400.18 478.25,405.7 478.93,408 481.49,409.07 484.86,413.79 484.45,416.89 485.12,420.26 487.42,421.74 489.3,427.4 492.94,432.65 494.96,436.69 493.75,440.87 494.96,444.78 492.8,447.61 493.48,451.92 490.78,453.94 486.74,455.28 486.74,453.13 484.59,452.86 481.89,449.22 479.6,447.47 476.23,446.66 476,444.66 475.15,442.76 471.65,438.85 471.65,436.56 468.55,436.42 466.35,433.04 464.24,430.9 463.57,429.28 464.92,427.94 465.45,425.51 464.51,424.03 462.89,423.76 462.89,425.38 461.95,426.32 460.6,424.57 460.47,422.01 461.41,419.31 461.95,416.35 461.14,413.25 458.45,408.67 456.29,408.8 450.67,403.35 449.52,401.98 444.03,398.83 440.3,399.51 438.51,401.53 434.74,403.68 430.02,406.24 430.02,404.09 427.19,402.34 428.13,400.58 425.57,399.24 423.96,400.18 419.92,398.56 417.76,398.43 417.76,396.68 413.54,398.6 411.43,397.35 409.27,397.35 408.19,398.83 405.77,398.97 404.09,395.37 404.32,392.06 431.72,389.48 433.53,392.06 461.61,390.77 464.78,394.05 "
     id="polygon151"
     style="fill:#25569d;fill-opacity:1;stroke:#1f3562;stroke-width:0.375;stroke-miterlimit:4;stroke-dasharray:none;stroke-opacity:1" /><polygon
     transform="translate(-6.2168886,-98.017187)"
     points="492.13,344 494.02,342.56 481.34,333.15 469.56,334.91 468.68,332.26 466.59,332.04 465.82,331.05 451.51,332.38 449.08,334.36 444.48,336.01 442.81,340.46 449.61,343.35 451.98,348.27 459.75,351.89 459.75,355.74 467.17,359.82 467.17,362.83 469.99,364.12 470.22,369.88 473.48,370.15 474.75,366.77 477.31,363.13 485.26,357.07 486.34,354.24 488.09,352.22 489.7,347.9 "
     id="polygon154"
     style="fill:#25569d;fill-opacity:1;stroke:#1f3562;stroke-width:0.375;stroke-miterlimit:4;stroke-dasharray:none;stroke-opacity:1" /><polygon
     transform="translate(-6.2168886,-98.017187)"
     points="493.23,274 493.23,275.37 495.35,275.37 497.73,277.5 495.98,281.25 495.73,283.87 497.73,283.87 498.85,283.3 500.35,284.72 501.56,283.64 503.99,283.64 503.99,282.42 501.97,277.17 501.97,270.7 504.93,266.8 506.14,266.93 506.01,269.62 504.53,272.72 505.6,275.42 506.82,281.62 509.11,282.29 510.72,282.29 510.86,285.25 513.55,284.72 513.42,287.14 512.48,290.24 512.48,294 514.36,290.51 515.71,284.45 517.19,282.02 517.19,277.77 510.92,278.96 506.35,264.25 471.31,270.24 472.98,277 479.1,270.75 481.23,271.75 483.1,270.24 487.6,269.25 489.85,272.5 491.35,272.5 "
     id="polygon157"
     style="fill:#25569d;fill-opacity:1;stroke:#1f3562;stroke-width:0.375;stroke-miterlimit:4;stroke-dasharray:none;stroke-opacity:1" /><polygon
     transform="translate(-6.2168886,-98.017187)"
     points="515.17,272.99 513.15,271.92 509.11,265.58 509.98,262.62 507.35,261.62 506.35,264.25 510.92,278.96 517.19,277.77 517.19,275.55 "
     id="polygon160"
     style="fill:#25569d;fill-opacity:1;stroke:#1f3562;stroke-width:0.375;stroke-miterlimit:4;stroke-dasharray:none;stroke-opacity:1" /><polygon
     transform="translate(-6.2168886,-98.017187)"
     points="522.58,261 519.08,268.41 517.19,270.3 516.25,268.68 513.55,267.34 511.56,265.59 510.04,263.35 509.98,262.62 512.35,260.32 513.1,258.25 515.73,256.25 513.23,253.25 511.73,253.25 511.6,252 509.48,252 510.23,247.45 508.98,245.75 511.1,244.36 511.96,240.58 519.76,243.81 521.04,245.79 520.56,249.15 519.62,251.17 521.5,250.9 522.58,251.84 "
     id="polygon163"
     style="fill:#25569d;fill-opacity:1;stroke:#1f3562;stroke-width:0.375;stroke-miterlimit:4;stroke-dasharray:none;stroke-opacity:1" /></svg>